<?xml version="1.0" encoding="utf-8" standalone="no"?>
<!DOCTYPE svg PUBLIC "-//W3C//DTD SVG 1.1//EN"
  "http://www.w3.org/Graphics/SVG/1.1/DTD/svg11.dtd">
<svg xmlns:xlink="http://www.w3.org/1999/xlink" width="460.8pt" height="345.6pt" viewBox="0 0 460.8 345.6" xmlns="http://www.w3.org/2000/svg" version="1.1">
 <metadata>
  <rdf:RDF xmlns:dc="http://purl.org/dc/elements/1.1/" xmlns:cc="http://creativecommons.org/ns#" xmlns:rdf="http://www.w3.org/1999/02/22-rdf-syntax-ns#">
   <cc:Work>
    <dc:type rdf:resource="http://purl.org/dc/dcmitype/StillImage"/>
    <dc:date>2023-06-15T15:46:54.071989</dc:date>
    <dc:format>image/svg+xml</dc:format>
    <dc:creator>
     <cc:Agent>
      <dc:title>Matplotlib v3.7.1, https://matplotlib.org/</dc:title>
     </cc:Agent>
    </dc:creator>
   </cc:Work>
  </rdf:RDF>
 </metadata>
 <defs>
  <style type="text/css">*{stroke-linejoin: round; stroke-linecap: butt}</style>
 </defs>
 <g id="figure_1">
  <g id="patch_1">
   <path d="M 0 345.6 
L 460.8 345.6 
L 460.8 0 
L 0 0 
z
" style="fill: #ffffff"/>
  </g>
  <g id="axes_1">
   <g id="patch_2">
    <path d="M 57.6 307.584 
L 414.72 307.584 
L 414.72 41.472 
L 57.6 41.472 
z
" style="fill: #ffffff"/>
   </g>
   <g id="matplotlib.axis_1">
    <g id="xtick_1">
     <g id="line2d_1">
      <defs>
       <path id="m53993dd806" d="M 0 0 
L 0 3.5 
" style="stroke: #000000; stroke-width: 0.8"/>
      </defs>
      <g>
       <use xlink:href="#m53993dd806" x="73.832727" y="307.584" style="stroke: #000000; stroke-width: 0.8"/>
      </g>
     </g>
     <g id="text_1">
      <!-- 0.30 -->
      <g transform="translate(62.699915 322.182437) scale(0.1 -0.1)">
       <defs>
        <path id="DejaVuSans-30" d="M 2034 4250 
Q 1547 4250 1301 3770 
Q 1056 3291 1056 2328 
Q 1056 1369 1301 889 
Q 1547 409 2034 409 
Q 2525 409 2770 889 
Q 3016 1369 3016 2328 
Q 3016 3291 2770 3770 
Q 2525 4250 2034 4250 
z
M 2034 4750 
Q 2819 4750 3233 4129 
Q 3647 3509 3647 2328 
Q 3647 1150 3233 529 
Q 2819 -91 2034 -91 
Q 1250 -91 836 529 
Q 422 1150 422 2328 
Q 422 3509 836 4129 
Q 1250 4750 2034 4750 
z
" transform="scale(0.015625)"/>
        <path id="DejaVuSans-2e" d="M 684 794 
L 1344 794 
L 1344 0 
L 684 0 
L 684 794 
z
" transform="scale(0.015625)"/>
        <path id="DejaVuSans-33" d="M 2597 2516 
Q 3050 2419 3304 2112 
Q 3559 1806 3559 1356 
Q 3559 666 3084 287 
Q 2609 -91 1734 -91 
Q 1441 -91 1130 -33 
Q 819 25 488 141 
L 488 750 
Q 750 597 1062 519 
Q 1375 441 1716 441 
Q 2309 441 2620 675 
Q 2931 909 2931 1356 
Q 2931 1769 2642 2001 
Q 2353 2234 1838 2234 
L 1294 2234 
L 1294 2753 
L 1863 2753 
Q 2328 2753 2575 2939 
Q 2822 3125 2822 3475 
Q 2822 3834 2567 4026 
Q 2313 4219 1838 4219 
Q 1578 4219 1281 4162 
Q 984 4106 628 3988 
L 628 4550 
Q 988 4650 1302 4700 
Q 1616 4750 1894 4750 
Q 2613 4750 3031 4423 
Q 3450 4097 3450 3541 
Q 3450 3153 3228 2886 
Q 3006 2619 2597 2516 
z
" transform="scale(0.015625)"/>
       </defs>
       <use xlink:href="#DejaVuSans-30"/>
       <use xlink:href="#DejaVuSans-2e" x="63.623047"/>
       <use xlink:href="#DejaVuSans-33" x="95.410156"/>
       <use xlink:href="#DejaVuSans-30" x="159.033203"/>
      </g>
     </g>
    </g>
    <g id="xtick_2">
     <g id="line2d_2">
      <g>
       <use xlink:href="#m53993dd806" x="127.941818" y="307.584" style="stroke: #000000; stroke-width: 0.8"/>
      </g>
     </g>
     <g id="text_2">
      <!-- 0.35 -->
      <g transform="translate(116.809006 322.182437) scale(0.1 -0.1)">
       <defs>
        <path id="DejaVuSans-35" d="M 691 4666 
L 3169 4666 
L 3169 4134 
L 1269 4134 
L 1269 2991 
Q 1406 3038 1543 3061 
Q 1681 3084 1819 3084 
Q 2600 3084 3056 2656 
Q 3513 2228 3513 1497 
Q 3513 744 3044 326 
Q 2575 -91 1722 -91 
Q 1428 -91 1123 -41 
Q 819 9 494 109 
L 494 744 
Q 775 591 1075 516 
Q 1375 441 1709 441 
Q 2250 441 2565 725 
Q 2881 1009 2881 1497 
Q 2881 1984 2565 2268 
Q 2250 2553 1709 2553 
Q 1456 2553 1204 2497 
Q 953 2441 691 2322 
L 691 4666 
z
" transform="scale(0.015625)"/>
       </defs>
       <use xlink:href="#DejaVuSans-30"/>
       <use xlink:href="#DejaVuSans-2e" x="63.623047"/>
       <use xlink:href="#DejaVuSans-33" x="95.410156"/>
       <use xlink:href="#DejaVuSans-35" x="159.033203"/>
      </g>
     </g>
    </g>
    <g id="xtick_3">
     <g id="line2d_3">
      <g>
       <use xlink:href="#m53993dd806" x="182.050909" y="307.584" style="stroke: #000000; stroke-width: 0.8"/>
      </g>
     </g>
     <g id="text_3">
      <!-- 0.40 -->
      <g transform="translate(170.918097 322.182437) scale(0.1 -0.1)">
       <defs>
        <path id="DejaVuSans-34" d="M 2419 4116 
L 825 1625 
L 2419 1625 
L 2419 4116 
z
M 2253 4666 
L 3047 4666 
L 3047 1625 
L 3713 1625 
L 3713 1100 
L 3047 1100 
L 3047 0 
L 2419 0 
L 2419 1100 
L 313 1100 
L 313 1709 
L 2253 4666 
z
" transform="scale(0.015625)"/>
       </defs>
       <use xlink:href="#DejaVuSans-30"/>
       <use xlink:href="#DejaVuSans-2e" x="63.623047"/>
       <use xlink:href="#DejaVuSans-34" x="95.410156"/>
       <use xlink:href="#DejaVuSans-30" x="159.033203"/>
      </g>
     </g>
    </g>
    <g id="xtick_4">
     <g id="line2d_4">
      <g>
       <use xlink:href="#m53993dd806" x="236.16" y="307.584" style="stroke: #000000; stroke-width: 0.8"/>
      </g>
     </g>
     <g id="text_4">
      <!-- 0.45 -->
      <g transform="translate(225.027187 322.182437) scale(0.1 -0.1)">
       <use xlink:href="#DejaVuSans-30"/>
       <use xlink:href="#DejaVuSans-2e" x="63.623047"/>
       <use xlink:href="#DejaVuSans-34" x="95.410156"/>
       <use xlink:href="#DejaVuSans-35" x="159.033203"/>
      </g>
     </g>
    </g>
    <g id="xtick_5">
     <g id="line2d_5">
      <g>
       <use xlink:href="#m53993dd806" x="290.269091" y="307.584" style="stroke: #000000; stroke-width: 0.8"/>
      </g>
     </g>
     <g id="text_5">
      <!-- 0.50 -->
      <g transform="translate(279.136278 322.182437) scale(0.1 -0.1)">
       <use xlink:href="#DejaVuSans-30"/>
       <use xlink:href="#DejaVuSans-2e" x="63.623047"/>
       <use xlink:href="#DejaVuSans-35" x="95.410156"/>
       <use xlink:href="#DejaVuSans-30" x="159.033203"/>
      </g>
     </g>
    </g>
    <g id="xtick_6">
     <g id="line2d_6">
      <g>
       <use xlink:href="#m53993dd806" x="344.378182" y="307.584" style="stroke: #000000; stroke-width: 0.8"/>
      </g>
     </g>
     <g id="text_6">
      <!-- 0.55 -->
      <g transform="translate(333.245369 322.182437) scale(0.1 -0.1)">
       <use xlink:href="#DejaVuSans-30"/>
       <use xlink:href="#DejaVuSans-2e" x="63.623047"/>
       <use xlink:href="#DejaVuSans-35" x="95.410156"/>
       <use xlink:href="#DejaVuSans-35" x="159.033203"/>
      </g>
     </g>
    </g>
    <g id="xtick_7">
     <g id="line2d_7">
      <g>
       <use xlink:href="#m53993dd806" x="398.487273" y="307.584" style="stroke: #000000; stroke-width: 0.8"/>
      </g>
     </g>
     <g id="text_7">
      <!-- 0.60 -->
      <g transform="translate(387.35446 322.182437) scale(0.1 -0.1)">
       <defs>
        <path id="DejaVuSans-36" d="M 2113 2584 
Q 1688 2584 1439 2293 
Q 1191 2003 1191 1497 
Q 1191 994 1439 701 
Q 1688 409 2113 409 
Q 2538 409 2786 701 
Q 3034 994 3034 1497 
Q 3034 2003 2786 2293 
Q 2538 2584 2113 2584 
z
M 3366 4563 
L 3366 3988 
Q 3128 4100 2886 4159 
Q 2644 4219 2406 4219 
Q 1781 4219 1451 3797 
Q 1122 3375 1075 2522 
Q 1259 2794 1537 2939 
Q 1816 3084 2150 3084 
Q 2853 3084 3261 2657 
Q 3669 2231 3669 1497 
Q 3669 778 3244 343 
Q 2819 -91 2113 -91 
Q 1303 -91 875 529 
Q 447 1150 447 2328 
Q 447 3434 972 4092 
Q 1497 4750 2381 4750 
Q 2619 4750 2861 4703 
Q 3103 4656 3366 4563 
z
" transform="scale(0.015625)"/>
       </defs>
       <use xlink:href="#DejaVuSans-30"/>
       <use xlink:href="#DejaVuSans-2e" x="63.623047"/>
       <use xlink:href="#DejaVuSans-36" x="95.410156"/>
       <use xlink:href="#DejaVuSans-30" x="159.033203"/>
      </g>
     </g>
    </g>
   </g>
   <g id="matplotlib.axis_2">
    <g id="ytick_1">
     <g id="line2d_8">
      <defs>
       <path id="m1bfdbf5f3e" d="M 0 0 
L -3.5 0 
" style="stroke: #000000; stroke-width: 0.8"/>
      </defs>
      <g>
       <use xlink:href="#m1bfdbf5f3e" x="57.6" y="295.488" style="stroke: #000000; stroke-width: 0.8"/>
      </g>
     </g>
     <g id="text_8">
      <!-- 0.40 -->
      <g transform="translate(28.334375 299.287219) scale(0.1 -0.1)">
       <use xlink:href="#DejaVuSans-30"/>
       <use xlink:href="#DejaVuSans-2e" x="63.623047"/>
       <use xlink:href="#DejaVuSans-34" x="95.410156"/>
       <use xlink:href="#DejaVuSans-30" x="159.033203"/>
      </g>
     </g>
    </g>
    <g id="ytick_2">
     <g id="line2d_9">
      <g>
       <use xlink:href="#m1bfdbf5f3e" x="57.6" y="255.168" style="stroke: #000000; stroke-width: 0.8"/>
      </g>
     </g>
     <g id="text_9">
      <!-- 0.45 -->
      <g transform="translate(28.334375 258.967219) scale(0.1 -0.1)">
       <use xlink:href="#DejaVuSans-30"/>
       <use xlink:href="#DejaVuSans-2e" x="63.623047"/>
       <use xlink:href="#DejaVuSans-34" x="95.410156"/>
       <use xlink:href="#DejaVuSans-35" x="159.033203"/>
      </g>
     </g>
    </g>
    <g id="ytick_3">
     <g id="line2d_10">
      <g>
       <use xlink:href="#m1bfdbf5f3e" x="57.6" y="214.848" style="stroke: #000000; stroke-width: 0.8"/>
      </g>
     </g>
     <g id="text_10">
      <!-- 0.50 -->
      <g transform="translate(28.334375 218.647219) scale(0.1 -0.1)">
       <use xlink:href="#DejaVuSans-30"/>
       <use xlink:href="#DejaVuSans-2e" x="63.623047"/>
       <use xlink:href="#DejaVuSans-35" x="95.410156"/>
       <use xlink:href="#DejaVuSans-30" x="159.033203"/>
      </g>
     </g>
    </g>
    <g id="ytick_4">
     <g id="line2d_11">
      <g>
       <use xlink:href="#m1bfdbf5f3e" x="57.6" y="174.528" style="stroke: #000000; stroke-width: 0.8"/>
      </g>
     </g>
     <g id="text_11">
      <!-- 0.55 -->
      <g transform="translate(28.334375 178.327219) scale(0.1 -0.1)">
       <use xlink:href="#DejaVuSans-30"/>
       <use xlink:href="#DejaVuSans-2e" x="63.623047"/>
       <use xlink:href="#DejaVuSans-35" x="95.410156"/>
       <use xlink:href="#DejaVuSans-35" x="159.033203"/>
      </g>
     </g>
    </g>
    <g id="ytick_5">
     <g id="line2d_12">
      <g>
       <use xlink:href="#m1bfdbf5f3e" x="57.6" y="134.208" style="stroke: #000000; stroke-width: 0.8"/>
      </g>
     </g>
     <g id="text_12">
      <!-- 0.60 -->
      <g transform="translate(28.334375 138.007219) scale(0.1 -0.1)">
       <use xlink:href="#DejaVuSans-30"/>
       <use xlink:href="#DejaVuSans-2e" x="63.623047"/>
       <use xlink:href="#DejaVuSans-36" x="95.410156"/>
       <use xlink:href="#DejaVuSans-30" x="159.033203"/>
      </g>
     </g>
    </g>
    <g id="ytick_6">
     <g id="line2d_13">
      <g>
       <use xlink:href="#m1bfdbf5f3e" x="57.6" y="93.888" style="stroke: #000000; stroke-width: 0.8"/>
      </g>
     </g>
     <g id="text_13">
      <!-- 0.65 -->
      <g transform="translate(28.334375 97.687219) scale(0.1 -0.1)">
       <use xlink:href="#DejaVuSans-30"/>
       <use xlink:href="#DejaVuSans-2e" x="63.623047"/>
       <use xlink:href="#DejaVuSans-36" x="95.410156"/>
       <use xlink:href="#DejaVuSans-35" x="159.033203"/>
      </g>
     </g>
    </g>
    <g id="ytick_7">
     <g id="line2d_14">
      <g>
       <use xlink:href="#m1bfdbf5f3e" x="57.6" y="53.568" style="stroke: #000000; stroke-width: 0.8"/>
      </g>
     </g>
     <g id="text_14">
      <!-- 0.70 -->
      <g transform="translate(28.334375 57.367219) scale(0.1 -0.1)">
       <defs>
        <path id="DejaVuSans-37" d="M 525 4666 
L 3525 4666 
L 3525 4397 
L 1831 0 
L 1172 0 
L 2766 4134 
L 525 4134 
L 525 4666 
z
" transform="scale(0.015625)"/>
       </defs>
       <use xlink:href="#DejaVuSans-30"/>
       <use xlink:href="#DejaVuSans-2e" x="63.623047"/>
       <use xlink:href="#DejaVuSans-37" x="95.410156"/>
       <use xlink:href="#DejaVuSans-30" x="159.033203"/>
      </g>
     </g>
    </g>
   </g>
   <g id="line2d_15">
    <defs>
     <path id="mcfc6dd7772" d="M 0 3 
C 0.795609 3 1.55874 2.683901 2.12132 2.12132 
C 2.683901 1.55874 3 0.795609 3 0 
C 3 -0.795609 2.683901 -1.55874 2.12132 -2.12132 
C 1.55874 -2.683901 0.795609 -3 0 -3 
C -0.795609 -3 -1.55874 -2.683901 -2.12132 -2.12132 
C -2.683901 -1.55874 -3 -0.795609 -3 0 
C -3 0.795609 -2.683901 1.55874 -2.12132 2.12132 
C -1.55874 2.683901 -0.795609 3 0 3 
z
" style="stroke: #1f77b4"/>
    </defs>
    <g clip-path="url(#p3ae438f9c0)">
     <use xlink:href="#mcfc6dd7772" x="73.832727" y="53.568" style="fill: #1f77b4; stroke: #1f77b4"/>
    </g>
   </g>
   <g id="line2d_16">
    <defs>
     <path id="ma87a054953" d="M 0 3 
C 0.795609 3 1.55874 2.683901 2.12132 2.12132 
C 2.683901 1.55874 3 0.795609 3 0 
C 3 -0.795609 2.683901 -1.55874 2.12132 -2.12132 
C 1.55874 -2.683901 0.795609 -3 0 -3 
C -0.795609 -3 -1.55874 -2.683901 -2.12132 -2.12132 
C -2.683901 -1.55874 -3 -0.795609 -3 0 
C -3 0.795609 -2.683901 1.55874 -2.12132 2.12132 
C -1.55874 2.683901 -0.795609 3 0 3 
z
" style="stroke: #ff7f0e"/>
    </defs>
    <g clip-path="url(#p3ae438f9c0)">
     <use xlink:href="#ma87a054953" x="236.16" y="174.528" style="fill: #ff7f0e; stroke: #ff7f0e"/>
    </g>
   </g>
   <g id="line2d_17">
    <defs>
     <path id="mb0998ccef8" d="M 0 3 
C 0.795609 3 1.55874 2.683901 2.12132 2.12132 
C 2.683901 1.55874 3 0.795609 3 0 
C 3 -0.795609 2.683901 -1.55874 2.12132 -2.12132 
C 1.55874 -2.683901 0.795609 -3 0 -3 
C -0.795609 -3 -1.55874 -2.683901 -2.12132 -2.12132 
C -2.683901 -1.55874 -3 -0.795609 -3 0 
C -3 0.795609 -2.683901 1.55874 -2.12132 2.12132 
C -1.55874 2.683901 -0.795609 3 0 3 
z
" style="stroke: #2ca02c"/>
    </defs>
    <g clip-path="url(#p3ae438f9c0)">
     <use xlink:href="#mb0998ccef8" x="317.323636" y="235.008" style="fill: #2ca02c; stroke: #2ca02c"/>
    </g>
   </g>
   <g id="line2d_18">
    <defs>
     <path id="mf7ac6ba7fb" d="M 0 3 
C 0.795609 3 1.55874 2.683901 2.12132 2.12132 
C 2.683901 1.55874 3 0.795609 3 0 
C 3 -0.795609 2.683901 -1.55874 2.12132 -2.12132 
C 1.55874 -2.683901 0.795609 -3 0 -3 
C -0.795609 -3 -1.55874 -2.683901 -2.12132 -2.12132 
C -2.683901 -1.55874 -3 -0.795609 -3 0 
C -3 0.795609 -2.683901 1.55874 -2.12132 2.12132 
C -1.55874 2.683901 -0.795609 3 0 3 
z
" style="stroke: #d62728"/>
    </defs>
    <g clip-path="url(#p3ae438f9c0)">
     <use xlink:href="#mf7ac6ba7fb" x="357.905455" y="265.248" style="fill: #d62728; stroke: #d62728"/>
    </g>
   </g>
   <g id="line2d_19">
    <defs>
     <path id="m890c9dfcdc" d="M 0 3 
C 0.795609 3 1.55874 2.683901 2.12132 2.12132 
C 2.683901 1.55874 3 0.795609 3 0 
C 3 -0.795609 2.683901 -1.55874 2.12132 -2.12132 
C 1.55874 -2.683901 0.795609 -3 0 -3 
C -0.795609 -3 -1.55874 -2.683901 -2.12132 -2.12132 
C -2.683901 -1.55874 -3 -0.795609 -3 0 
C -3 0.795609 -2.683901 1.55874 -2.12132 2.12132 
C -1.55874 2.683901 -0.795609 3 0 3 
z
" style="stroke: #9467bd"/>
    </defs>
    <g clip-path="url(#p3ae438f9c0)">
     <use xlink:href="#m890c9dfcdc" x="378.196364" y="280.368" style="fill: #9467bd; stroke: #9467bd"/>
    </g>
   </g>
   <g id="line2d_20">
    <defs>
     <path id="m355d622a6e" d="M 0 3 
C 0.795609 3 1.55874 2.683901 2.12132 2.12132 
C 2.683901 1.55874 3 0.795609 3 0 
C 3 -0.795609 2.683901 -1.55874 2.12132 -2.12132 
C 1.55874 -2.683901 0.795609 -3 0 -3 
C -0.795609 -3 -1.55874 -2.683901 -2.12132 -2.12132 
C -2.683901 -1.55874 -3 -0.795609 -3 0 
C -3 0.795609 -2.683901 1.55874 -2.12132 2.12132 
C -1.55874 2.683901 -0.795609 3 0 3 
z
" style="stroke: #8c564b"/>
    </defs>
    <g clip-path="url(#p3ae438f9c0)">
     <use xlink:href="#m355d622a6e" x="388.341818" y="287.928" style="fill: #8c564b; stroke: #8c564b"/>
    </g>
   </g>
   <g id="line2d_21">
    <defs>
     <path id="m652c5fa7b0" d="M 0 3 
C 0.795609 3 1.55874 2.683901 2.12132 2.12132 
C 2.683901 1.55874 3 0.795609 3 0 
C 3 -0.795609 2.683901 -1.55874 2.12132 -2.12132 
C 1.55874 -2.683901 0.795609 -3 0 -3 
C -0.795609 -3 -1.55874 -2.683901 -2.12132 -2.12132 
C -2.683901 -1.55874 -3 -0.795609 -3 0 
C -3 0.795609 -2.683901 1.55874 -2.12132 2.12132 
C -1.55874 2.683901 -0.795609 3 0 3 
z
" style="stroke: #e377c2"/>
    </defs>
    <g clip-path="url(#p3ae438f9c0)">
     <use xlink:href="#m652c5fa7b0" x="393.414545" y="291.708" style="fill: #e377c2; stroke: #e377c2"/>
    </g>
   </g>
   <g id="line2d_22">
    <defs>
     <path id="m95008d1be0" d="M 0 3 
C 0.795609 3 1.55874 2.683901 2.12132 2.12132 
C 2.683901 1.55874 3 0.795609 3 0 
C 3 -0.795609 2.683901 -1.55874 2.12132 -2.12132 
C 1.55874 -2.683901 0.795609 -3 0 -3 
C -0.795609 -3 -1.55874 -2.683901 -2.12132 -2.12132 
C -2.683901 -1.55874 -3 -0.795609 -3 0 
C -3 0.795609 -2.683901 1.55874 -2.12132 2.12132 
C -1.55874 2.683901 -0.795609 3 0 3 
z
" style="stroke: #7f7f7f"/>
    </defs>
    <g clip-path="url(#p3ae438f9c0)">
     <use xlink:href="#m95008d1be0" x="395.950909" y="293.598" style="fill: #7f7f7f; stroke: #7f7f7f"/>
    </g>
   </g>
   <g id="line2d_23">
    <defs>
     <path id="m7a0bc1984a" d="M 0 3 
C 0.795609 3 1.55874 2.683901 2.12132 2.12132 
C 2.683901 1.55874 3 0.795609 3 0 
C 3 -0.795609 2.683901 -1.55874 2.12132 -2.12132 
C 1.55874 -2.683901 0.795609 -3 0 -3 
C -0.795609 -3 -1.55874 -2.683901 -2.12132 -2.12132 
C -2.683901 -1.55874 -3 -0.795609 -3 0 
C -3 0.795609 -2.683901 1.55874 -2.12132 2.12132 
C -1.55874 2.683901 -0.795609 3 0 3 
z
" style="stroke: #bcbd22"/>
    </defs>
    <g clip-path="url(#p3ae438f9c0)">
     <use xlink:href="#m7a0bc1984a" x="397.219091" y="294.543" style="fill: #bcbd22; stroke: #bcbd22"/>
    </g>
   </g>
   <g id="line2d_24">
    <defs>
     <path id="mb98cbc5103" d="M 0 3 
C 0.795609 3 1.55874 2.683901 2.12132 2.12132 
C 2.683901 1.55874 3 0.795609 3 0 
C 3 -0.795609 2.683901 -1.55874 2.12132 -2.12132 
C 1.55874 -2.683901 0.795609 -3 0 -3 
C -0.795609 -3 -1.55874 -2.683901 -2.12132 -2.12132 
C -2.683901 -1.55874 -3 -0.795609 -3 0 
C -3 0.795609 -2.683901 1.55874 -2.12132 2.12132 
C -1.55874 2.683901 -0.795609 3 0 3 
z
" style="stroke: #17becf"/>
    </defs>
    <g clip-path="url(#p3ae438f9c0)">
     <use xlink:href="#mb98cbc5103" x="397.853182" y="295.0155" style="fill: #17becf; stroke: #17becf"/>
    </g>
   </g>
   <g id="line2d_25">
    <g clip-path="url(#p3ae438f9c0)">
     <use xlink:href="#mcfc6dd7772" x="398.170227" y="295.25175" style="fill: #1f77b4; stroke: #1f77b4"/>
    </g>
   </g>
   <g id="line2d_26">
    <g clip-path="url(#p3ae438f9c0)">
     <use xlink:href="#ma87a054953" x="398.32875" y="295.369875" style="fill: #ff7f0e; stroke: #ff7f0e"/>
    </g>
   </g>
   <g id="line2d_27">
    <g clip-path="url(#p3ae438f9c0)">
     <use xlink:href="#mb0998ccef8" x="398.408011" y="295.428938" style="fill: #2ca02c; stroke: #2ca02c"/>
    </g>
   </g>
   <g id="line2d_28">
    <g clip-path="url(#p3ae438f9c0)">
     <use xlink:href="#mf7ac6ba7fb" x="398.447642" y="295.458469" style="fill: #d62728; stroke: #d62728"/>
    </g>
   </g>
   <g id="line2d_29">
    <g clip-path="url(#p3ae438f9c0)">
     <use xlink:href="#m890c9dfcdc" x="398.467457" y="295.473234" style="fill: #9467bd; stroke: #9467bd"/>
    </g>
   </g>
   <g id="line2d_30">
    <g clip-path="url(#p3ae438f9c0)">
     <use xlink:href="#m355d622a6e" x="398.477365" y="295.480617" style="fill: #8c564b; stroke: #8c564b"/>
    </g>
   </g>
   <g id="line2d_31">
    <g clip-path="url(#p3ae438f9c0)">
     <use xlink:href="#m652c5fa7b0" x="398.482319" y="295.484309" style="fill: #e377c2; stroke: #e377c2"/>
    </g>
   </g>
   <g id="line2d_32">
    <g clip-path="url(#p3ae438f9c0)">
     <use xlink:href="#m95008d1be0" x="398.484796" y="295.486154" style="fill: #7f7f7f; stroke: #7f7f7f"/>
    </g>
   </g>
   <g id="line2d_33">
    <g clip-path="url(#p3ae438f9c0)">
     <use xlink:href="#m7a0bc1984a" x="398.486034" y="295.487077" style="fill: #bcbd22; stroke: #bcbd22"/>
    </g>
   </g>
   <g id="line2d_34">
    <g clip-path="url(#p3ae438f9c0)">
     <use xlink:href="#mb98cbc5103" x="398.486653" y="295.487539" style="fill: #17becf; stroke: #17becf"/>
    </g>
   </g>
   <g id="line2d_35">
    <g clip-path="url(#p3ae438f9c0)">
     <use xlink:href="#mcfc6dd7772" x="398.486963" y="295.487769" style="fill: #1f77b4; stroke: #1f77b4"/>
    </g>
   </g>
   <g id="line2d_36">
    <g clip-path="url(#p3ae438f9c0)">
     <use xlink:href="#ma87a054953" x="398.487118" y="295.487885" style="fill: #ff7f0e; stroke: #ff7f0e"/>
    </g>
   </g>
   <g id="line2d_37">
    <g clip-path="url(#p3ae438f9c0)">
     <use xlink:href="#mb0998ccef8" x="398.487195" y="295.487942" style="fill: #2ca02c; stroke: #2ca02c"/>
    </g>
   </g>
   <g id="line2d_38">
    <g clip-path="url(#p3ae438f9c0)">
     <use xlink:href="#mf7ac6ba7fb" x="398.487234" y="295.487971" style="fill: #d62728; stroke: #d62728"/>
    </g>
   </g>
   <g id="line2d_39">
    <g clip-path="url(#p3ae438f9c0)">
     <use xlink:href="#m890c9dfcdc" x="398.487253" y="295.487986" style="fill: #9467bd; stroke: #9467bd"/>
    </g>
   </g>
   <g id="line2d_40">
    <g clip-path="url(#p3ae438f9c0)">
     <use xlink:href="#m355d622a6e" x="398.487263" y="295.487993" style="fill: #8c564b; stroke: #8c564b"/>
    </g>
   </g>
   <g id="line2d_41">
    <g clip-path="url(#p3ae438f9c0)">
     <use xlink:href="#m652c5fa7b0" x="398.487268" y="295.487996" style="fill: #e377c2; stroke: #e377c2"/>
    </g>
   </g>
   <g id="line2d_42">
    <g clip-path="url(#p3ae438f9c0)">
     <use xlink:href="#m95008d1be0" x="398.48727" y="295.487998" style="fill: #7f7f7f; stroke: #7f7f7f"/>
    </g>
   </g>
   <g id="line2d_43">
    <g clip-path="url(#p3ae438f9c0)">
     <use xlink:href="#m7a0bc1984a" x="398.487272" y="295.487999" style="fill: #bcbd22; stroke: #bcbd22"/>
    </g>
   </g>
   <g id="line2d_44">
    <g clip-path="url(#p3ae438f9c0)">
     <use xlink:href="#mb98cbc5103" x="398.487272" y="295.488" style="fill: #17becf; stroke: #17becf"/>
    </g>
   </g>
   <g id="line2d_45">
    <g clip-path="url(#p3ae438f9c0)">
     <use xlink:href="#mcfc6dd7772" x="398.487272" y="295.488" style="fill: #1f77b4; stroke: #1f77b4"/>
    </g>
   </g>
   <g id="line2d_46">
    <g clip-path="url(#p3ae438f9c0)">
     <use xlink:href="#ma87a054953" x="398.487273" y="295.488" style="fill: #ff7f0e; stroke: #ff7f0e"/>
    </g>
   </g>
   <g id="line2d_47">
    <g clip-path="url(#p3ae438f9c0)">
     <use xlink:href="#mb0998ccef8" x="398.487273" y="295.488" style="fill: #2ca02c; stroke: #2ca02c"/>
    </g>
   </g>
   <g id="line2d_48">
    <g clip-path="url(#p3ae438f9c0)">
     <use xlink:href="#mf7ac6ba7fb" x="398.487273" y="295.488" style="fill: #d62728; stroke: #d62728"/>
    </g>
   </g>
   <g id="line2d_49">
    <g clip-path="url(#p3ae438f9c0)">
     <use xlink:href="#m890c9dfcdc" x="398.487273" y="295.488" style="fill: #9467bd; stroke: #9467bd"/>
    </g>
   </g>
   <g id="line2d_50">
    <g clip-path="url(#p3ae438f9c0)">
     <use xlink:href="#m355d622a6e" x="398.487273" y="295.488" style="fill: #8c564b; stroke: #8c564b"/>
    </g>
   </g>
   <g id="line2d_51">
    <g clip-path="url(#p3ae438f9c0)">
     <use xlink:href="#m652c5fa7b0" x="398.487273" y="295.488" style="fill: #e377c2; stroke: #e377c2"/>
    </g>
   </g>
   <g id="line2d_52">
    <g clip-path="url(#p3ae438f9c0)">
     <use xlink:href="#m95008d1be0" x="398.487273" y="295.488" style="fill: #7f7f7f; stroke: #7f7f7f"/>
    </g>
   </g>
   <g id="line2d_53">
    <g clip-path="url(#p3ae438f9c0)">
     <use xlink:href="#m7a0bc1984a" x="398.487273" y="295.488" style="fill: #bcbd22; stroke: #bcbd22"/>
    </g>
   </g>
   <g id="line2d_54">
    <g clip-path="url(#p3ae438f9c0)">
     <use xlink:href="#mb98cbc5103" x="398.487273" y="295.488" style="fill: #17becf; stroke: #17becf"/>
    </g>
   </g>
   <g id="line2d_55">
    <g clip-path="url(#p3ae438f9c0)">
     <use xlink:href="#mcfc6dd7772" x="398.487273" y="295.488" style="fill: #1f77b4; stroke: #1f77b4"/>
    </g>
   </g>
   <g id="line2d_56">
    <g clip-path="url(#p3ae438f9c0)">
     <use xlink:href="#ma87a054953" x="398.487273" y="295.488" style="fill: #ff7f0e; stroke: #ff7f0e"/>
    </g>
   </g>
   <g id="line2d_57">
    <g clip-path="url(#p3ae438f9c0)">
     <use xlink:href="#mb0998ccef8" x="398.487273" y="295.488" style="fill: #2ca02c; stroke: #2ca02c"/>
    </g>
   </g>
   <g id="line2d_58">
    <g clip-path="url(#p3ae438f9c0)">
     <use xlink:href="#mf7ac6ba7fb" x="398.487273" y="295.488" style="fill: #d62728; stroke: #d62728"/>
    </g>
   </g>
   <g id="line2d_59">
    <g clip-path="url(#p3ae438f9c0)">
     <use xlink:href="#m890c9dfcdc" x="398.487273" y="295.488" style="fill: #9467bd; stroke: #9467bd"/>
    </g>
   </g>
   <g id="line2d_60">
    <g clip-path="url(#p3ae438f9c0)">
     <use xlink:href="#m355d622a6e" x="398.487273" y="295.488" style="fill: #8c564b; stroke: #8c564b"/>
    </g>
   </g>
   <g id="line2d_61">
    <g clip-path="url(#p3ae438f9c0)">
     <use xlink:href="#m652c5fa7b0" x="398.487273" y="295.488" style="fill: #e377c2; stroke: #e377c2"/>
    </g>
   </g>
   <g id="line2d_62">
    <g clip-path="url(#p3ae438f9c0)">
     <use xlink:href="#m95008d1be0" x="398.487273" y="295.488" style="fill: #7f7f7f; stroke: #7f7f7f"/>
    </g>
   </g>
   <g id="line2d_63">
    <g clip-path="url(#p3ae438f9c0)">
     <use xlink:href="#m7a0bc1984a" x="398.487273" y="295.488" style="fill: #bcbd22; stroke: #bcbd22"/>
    </g>
   </g>
   <g id="line2d_64">
    <g clip-path="url(#p3ae438f9c0)">
     <use xlink:href="#mb98cbc5103" x="398.487273" y="295.488" style="fill: #17becf; stroke: #17becf"/>
    </g>
   </g>
   <g id="line2d_65">
    <g clip-path="url(#p3ae438f9c0)">
     <use xlink:href="#mcfc6dd7772" x="398.487273" y="295.488" style="fill: #1f77b4; stroke: #1f77b4"/>
    </g>
   </g>
   <g id="line2d_66">
    <g clip-path="url(#p3ae438f9c0)">
     <use xlink:href="#ma87a054953" x="398.487273" y="295.488" style="fill: #ff7f0e; stroke: #ff7f0e"/>
    </g>
   </g>
   <g id="line2d_67">
    <g clip-path="url(#p3ae438f9c0)">
     <use xlink:href="#mb0998ccef8" x="398.487273" y="295.488" style="fill: #2ca02c; stroke: #2ca02c"/>
    </g>
   </g>
   <g id="line2d_68">
    <g clip-path="url(#p3ae438f9c0)">
     <use xlink:href="#mf7ac6ba7fb" x="398.487273" y="295.488" style="fill: #d62728; stroke: #d62728"/>
    </g>
   </g>
   <g id="line2d_69">
    <g clip-path="url(#p3ae438f9c0)">
     <use xlink:href="#m890c9dfcdc" x="398.487273" y="295.488" style="fill: #9467bd; stroke: #9467bd"/>
    </g>
   </g>
   <g id="line2d_70">
    <g clip-path="url(#p3ae438f9c0)">
     <use xlink:href="#m355d622a6e" x="398.487273" y="295.488" style="fill: #8c564b; stroke: #8c564b"/>
    </g>
   </g>
   <g id="line2d_71">
    <g clip-path="url(#p3ae438f9c0)">
     <use xlink:href="#m652c5fa7b0" x="398.487273" y="295.488" style="fill: #e377c2; stroke: #e377c2"/>
    </g>
   </g>
   <g id="line2d_72">
    <g clip-path="url(#p3ae438f9c0)">
     <use xlink:href="#m95008d1be0" x="398.487273" y="295.488" style="fill: #7f7f7f; stroke: #7f7f7f"/>
    </g>
   </g>
   <g id="line2d_73">
    <g clip-path="url(#p3ae438f9c0)">
     <use xlink:href="#m7a0bc1984a" x="398.487273" y="295.488" style="fill: #bcbd22; stroke: #bcbd22"/>
    </g>
   </g>
   <g id="line2d_74">
    <g clip-path="url(#p3ae438f9c0)">
     <use xlink:href="#mb98cbc5103" x="398.487273" y="295.488" style="fill: #17becf; stroke: #17becf"/>
    </g>
   </g>
   <g id="line2d_75">
    <g clip-path="url(#p3ae438f9c0)">
     <use xlink:href="#mcfc6dd7772" x="398.487273" y="295.488" style="fill: #1f77b4; stroke: #1f77b4"/>
    </g>
   </g>
   <g id="line2d_76">
    <g clip-path="url(#p3ae438f9c0)">
     <use xlink:href="#ma87a054953" x="398.487273" y="295.488" style="fill: #ff7f0e; stroke: #ff7f0e"/>
    </g>
   </g>
   <g id="line2d_77">
    <g clip-path="url(#p3ae438f9c0)">
     <use xlink:href="#mb0998ccef8" x="398.487273" y="295.488" style="fill: #2ca02c; stroke: #2ca02c"/>
    </g>
   </g>
   <g id="line2d_78">
    <g clip-path="url(#p3ae438f9c0)">
     <use xlink:href="#mf7ac6ba7fb" x="398.487273" y="295.488" style="fill: #d62728; stroke: #d62728"/>
    </g>
   </g>
   <g id="line2d_79">
    <g clip-path="url(#p3ae438f9c0)">
     <use xlink:href="#m890c9dfcdc" x="398.487273" y="295.488" style="fill: #9467bd; stroke: #9467bd"/>
    </g>
   </g>
   <g id="line2d_80">
    <g clip-path="url(#p3ae438f9c0)">
     <use xlink:href="#m355d622a6e" x="398.487273" y="295.488" style="fill: #8c564b; stroke: #8c564b"/>
    </g>
   </g>
   <g id="line2d_81">
    <g clip-path="url(#p3ae438f9c0)">
     <use xlink:href="#m652c5fa7b0" x="398.487273" y="295.488" style="fill: #e377c2; stroke: #e377c2"/>
    </g>
   </g>
   <g id="line2d_82">
    <g clip-path="url(#p3ae438f9c0)">
     <use xlink:href="#m95008d1be0" x="398.487273" y="295.488" style="fill: #7f7f7f; stroke: #7f7f7f"/>
    </g>
   </g>
   <g id="line2d_83">
    <g clip-path="url(#p3ae438f9c0)">
     <use xlink:href="#m7a0bc1984a" x="398.487273" y="295.488" style="fill: #bcbd22; stroke: #bcbd22"/>
    </g>
   </g>
   <g id="line2d_84">
    <g clip-path="url(#p3ae438f9c0)">
     <use xlink:href="#mb98cbc5103" x="398.487273" y="295.488" style="fill: #17becf; stroke: #17becf"/>
    </g>
   </g>
   <g id="line2d_85">
    <g clip-path="url(#p3ae438f9c0)">
     <use xlink:href="#mcfc6dd7772" x="398.487273" y="295.488" style="fill: #1f77b4; stroke: #1f77b4"/>
    </g>
   </g>
   <g id="line2d_86">
    <g clip-path="url(#p3ae438f9c0)">
     <use xlink:href="#ma87a054953" x="398.487273" y="295.488" style="fill: #ff7f0e; stroke: #ff7f0e"/>
    </g>
   </g>
   <g id="line2d_87">
    <g clip-path="url(#p3ae438f9c0)">
     <use xlink:href="#mb0998ccef8" x="398.487273" y="295.488" style="fill: #2ca02c; stroke: #2ca02c"/>
    </g>
   </g>
   <g id="line2d_88">
    <g clip-path="url(#p3ae438f9c0)">
     <use xlink:href="#mf7ac6ba7fb" x="398.487273" y="295.488" style="fill: #d62728; stroke: #d62728"/>
    </g>
   </g>
   <g id="line2d_89">
    <g clip-path="url(#p3ae438f9c0)">
     <use xlink:href="#m890c9dfcdc" x="398.487273" y="295.488" style="fill: #9467bd; stroke: #9467bd"/>
    </g>
   </g>
   <g id="line2d_90">
    <g clip-path="url(#p3ae438f9c0)">
     <use xlink:href="#m355d622a6e" x="398.487273" y="295.488" style="fill: #8c564b; stroke: #8c564b"/>
    </g>
   </g>
   <g id="line2d_91">
    <g clip-path="url(#p3ae438f9c0)">
     <use xlink:href="#m652c5fa7b0" x="398.487273" y="295.488" style="fill: #e377c2; stroke: #e377c2"/>
    </g>
   </g>
   <g id="line2d_92">
    <g clip-path="url(#p3ae438f9c0)">
     <use xlink:href="#m95008d1be0" x="398.487273" y="295.488" style="fill: #7f7f7f; stroke: #7f7f7f"/>
    </g>
   </g>
   <g id="line2d_93">
    <g clip-path="url(#p3ae438f9c0)">
     <use xlink:href="#m7a0bc1984a" x="398.487273" y="295.488" style="fill: #bcbd22; stroke: #bcbd22"/>
    </g>
   </g>
   <g id="line2d_94">
    <g clip-path="url(#p3ae438f9c0)">
     <use xlink:href="#mb98cbc5103" x="398.487273" y="295.488" style="fill: #17becf; stroke: #17becf"/>
    </g>
   </g>
   <g id="line2d_95">
    <g clip-path="url(#p3ae438f9c0)">
     <use xlink:href="#mcfc6dd7772" x="398.487273" y="295.488" style="fill: #1f77b4; stroke: #1f77b4"/>
    </g>
   </g>
   <g id="line2d_96">
    <g clip-path="url(#p3ae438f9c0)">
     <use xlink:href="#ma87a054953" x="398.487273" y="295.488" style="fill: #ff7f0e; stroke: #ff7f0e"/>
    </g>
   </g>
   <g id="line2d_97">
    <g clip-path="url(#p3ae438f9c0)">
     <use xlink:href="#mb0998ccef8" x="398.487273" y="295.488" style="fill: #2ca02c; stroke: #2ca02c"/>
    </g>
   </g>
   <g id="line2d_98">
    <g clip-path="url(#p3ae438f9c0)">
     <use xlink:href="#mf7ac6ba7fb" x="398.487273" y="295.488" style="fill: #d62728; stroke: #d62728"/>
    </g>
   </g>
   <g id="line2d_99">
    <g clip-path="url(#p3ae438f9c0)">
     <use xlink:href="#m890c9dfcdc" x="398.487273" y="295.488" style="fill: #9467bd; stroke: #9467bd"/>
    </g>
   </g>
   <g id="line2d_100">
    <g clip-path="url(#p3ae438f9c0)">
     <use xlink:href="#m355d622a6e" x="398.487273" y="295.488" style="fill: #8c564b; stroke: #8c564b"/>
    </g>
   </g>
   <g id="line2d_101">
    <g clip-path="url(#p3ae438f9c0)">
     <use xlink:href="#m652c5fa7b0" x="398.487273" y="295.488" style="fill: #e377c2; stroke: #e377c2"/>
    </g>
   </g>
   <g id="line2d_102">
    <g clip-path="url(#p3ae438f9c0)">
     <use xlink:href="#m95008d1be0" x="398.487273" y="295.488" style="fill: #7f7f7f; stroke: #7f7f7f"/>
    </g>
   </g>
   <g id="line2d_103">
    <g clip-path="url(#p3ae438f9c0)">
     <use xlink:href="#m7a0bc1984a" x="398.487273" y="295.488" style="fill: #bcbd22; stroke: #bcbd22"/>
    </g>
   </g>
   <g id="line2d_104">
    <g clip-path="url(#p3ae438f9c0)">
     <use xlink:href="#mb98cbc5103" x="398.487273" y="295.488" style="fill: #17becf; stroke: #17becf"/>
    </g>
   </g>
   <g id="line2d_105">
    <g clip-path="url(#p3ae438f9c0)">
     <use xlink:href="#mcfc6dd7772" x="398.487273" y="295.488" style="fill: #1f77b4; stroke: #1f77b4"/>
    </g>
   </g>
   <g id="line2d_106">
    <g clip-path="url(#p3ae438f9c0)">
     <use xlink:href="#ma87a054953" x="398.487273" y="295.488" style="fill: #ff7f0e; stroke: #ff7f0e"/>
    </g>
   </g>
   <g id="line2d_107">
    <g clip-path="url(#p3ae438f9c0)">
     <use xlink:href="#mb0998ccef8" x="398.487273" y="295.488" style="fill: #2ca02c; stroke: #2ca02c"/>
    </g>
   </g>
   <g id="line2d_108">
    <g clip-path="url(#p3ae438f9c0)">
     <use xlink:href="#mf7ac6ba7fb" x="398.487273" y="295.488" style="fill: #d62728; stroke: #d62728"/>
    </g>
   </g>
   <g id="line2d_109">
    <g clip-path="url(#p3ae438f9c0)">
     <use xlink:href="#m890c9dfcdc" x="398.487273" y="295.488" style="fill: #9467bd; stroke: #9467bd"/>
    </g>
   </g>
   <g id="line2d_110">
    <g clip-path="url(#p3ae438f9c0)">
     <use xlink:href="#m355d622a6e" x="398.487273" y="295.488" style="fill: #8c564b; stroke: #8c564b"/>
    </g>
   </g>
   <g id="line2d_111">
    <g clip-path="url(#p3ae438f9c0)">
     <use xlink:href="#m652c5fa7b0" x="398.487273" y="295.488" style="fill: #e377c2; stroke: #e377c2"/>
    </g>
   </g>
   <g id="line2d_112">
    <g clip-path="url(#p3ae438f9c0)">
     <use xlink:href="#m95008d1be0" x="398.487273" y="295.488" style="fill: #7f7f7f; stroke: #7f7f7f"/>
    </g>
   </g>
   <g id="line2d_113">
    <g clip-path="url(#p3ae438f9c0)">
     <use xlink:href="#m7a0bc1984a" x="398.487273" y="295.488" style="fill: #bcbd22; stroke: #bcbd22"/>
    </g>
   </g>
   <g id="patch_3">
    <path d="M 57.6 307.584 
L 57.6 41.472 
" style="fill: none; stroke: #000000; stroke-width: 0.8; stroke-linejoin: miter; stroke-linecap: square"/>
   </g>
   <g id="patch_4">
    <path d="M 414.72 307.584 
L 414.72 41.472 
" style="fill: none; stroke: #000000; stroke-width: 0.8; stroke-linejoin: miter; stroke-linecap: square"/>
   </g>
   <g id="patch_5">
    <path d="M 57.6 307.584 
L 414.72 307.584 
" style="fill: none; stroke: #000000; stroke-width: 0.8; stroke-linejoin: miter; stroke-linecap: square"/>
   </g>
   <g id="patch_6">
    <path d="M 57.6 41.472 
L 414.72 41.472 
" style="fill: none; stroke: #000000; stroke-width: 0.8; stroke-linejoin: miter; stroke-linecap: square"/>
   </g>
  </g>
 </g>
 <defs>
  <clipPath id="p3ae438f9c0">
   <rect x="57.6" y="41.472" width="357.12" height="266.112"/>
  </clipPath>
 </defs>
</svg>
