<?xml version="1.0" encoding="utf-8" standalone="no"?>
<!DOCTYPE svg PUBLIC "-//W3C//DTD SVG 1.1//EN"
  "http://www.w3.org/Graphics/SVG/1.1/DTD/svg11.dtd">
<svg xmlns:xlink="http://www.w3.org/1999/xlink" width="460.8pt" height="345.6pt" viewBox="0 0 460.8 345.6" xmlns="http://www.w3.org/2000/svg" version="1.1">
 <metadata>
  <rdf:RDF xmlns:dc="http://purl.org/dc/elements/1.1/" xmlns:cc="http://creativecommons.org/ns#" xmlns:rdf="http://www.w3.org/1999/02/22-rdf-syntax-ns#">
   <cc:Work>
    <dc:type rdf:resource="http://purl.org/dc/dcmitype/StillImage"/>
    <dc:date>2023-04-28T15:26:14.790373</dc:date>
    <dc:format>image/svg+xml</dc:format>
    <dc:creator>
     <cc:Agent>
      <dc:title>Matplotlib v3.7.1, https://matplotlib.org/</dc:title>
     </cc:Agent>
    </dc:creator>
   </cc:Work>
  </rdf:RDF>
 </metadata>
 <defs>
  <style type="text/css">*{stroke-linejoin: round; stroke-linecap: butt}</style>
 </defs>
 <g id="figure_1">
  <g id="patch_1">
   <path d="M 0 345.6 
L 460.8 345.6 
L 460.8 0 
L 0 0 
z
" style="fill: #ffffff"/>
  </g>
  <g id="axes_1">
   <g id="patch_2">
    <path d="M 57.6 307.584 
L 414.72 307.584 
L 414.72 41.472 
L 57.6 41.472 
z
" style="fill: #ffffff"/>
   </g>
   <g id="matplotlib.axis_1">
    <g id="xtick_1">
     <g id="line2d_1">
      <defs>
       <path id="m3030406323" d="M 0 0 
L 0 3.5 
" style="stroke: #000000; stroke-width: 0.8"/>
      </defs>
      <g>
       <use xlink:href="#m3030406323" x="73.832727" y="307.584" style="stroke: #000000; stroke-width: 0.8"/>
      </g>
     </g>
     <g id="text_1">
      <!-- 0 -->
      <g transform="translate(70.651477 322.182437) scale(0.1 -0.1)">
       <defs>
        <path id="DejaVuSans-30" d="M 2034 4250 
Q 1547 4250 1301 3770 
Q 1056 3291 1056 2328 
Q 1056 1369 1301 889 
Q 1547 409 2034 409 
Q 2525 409 2770 889 
Q 3016 1369 3016 2328 
Q 3016 3291 2770 3770 
Q 2525 4250 2034 4250 
z
M 2034 4750 
Q 2819 4750 3233 4129 
Q 3647 3509 3647 2328 
Q 3647 1150 3233 529 
Q 2819 -91 2034 -91 
Q 1250 -91 836 529 
Q 422 1150 422 2328 
Q 422 3509 836 4129 
Q 1250 4750 2034 4750 
z
" transform="scale(0.015625)"/>
       </defs>
       <use xlink:href="#DejaVuSans-30"/>
      </g>
     </g>
    </g>
    <g id="xtick_2">
     <g id="line2d_2">
      <g>
       <use xlink:href="#m3030406323" x="113.913535" y="307.584" style="stroke: #000000; stroke-width: 0.8"/>
      </g>
     </g>
     <g id="text_2">
      <!-- 20 -->
      <g transform="translate(107.551035 322.182437) scale(0.1 -0.1)">
       <defs>
        <path id="DejaVuSans-32" d="M 1228 531 
L 3431 531 
L 3431 0 
L 469 0 
L 469 531 
Q 828 903 1448 1529 
Q 2069 2156 2228 2338 
Q 2531 2678 2651 2914 
Q 2772 3150 2772 3378 
Q 2772 3750 2511 3984 
Q 2250 4219 1831 4219 
Q 1534 4219 1204 4116 
Q 875 4013 500 3803 
L 500 4441 
Q 881 4594 1212 4672 
Q 1544 4750 1819 4750 
Q 2544 4750 2975 4387 
Q 3406 4025 3406 3419 
Q 3406 3131 3298 2873 
Q 3191 2616 2906 2266 
Q 2828 2175 2409 1742 
Q 1991 1309 1228 531 
z
" transform="scale(0.015625)"/>
       </defs>
       <use xlink:href="#DejaVuSans-32"/>
       <use xlink:href="#DejaVuSans-30" x="63.623047"/>
      </g>
     </g>
    </g>
    <g id="xtick_3">
     <g id="line2d_3">
      <g>
       <use xlink:href="#m3030406323" x="153.994343" y="307.584" style="stroke: #000000; stroke-width: 0.8"/>
      </g>
     </g>
     <g id="text_3">
      <!-- 40 -->
      <g transform="translate(147.631843 322.182437) scale(0.1 -0.1)">
       <defs>
        <path id="DejaVuSans-34" d="M 2419 4116 
L 825 1625 
L 2419 1625 
L 2419 4116 
z
M 2253 4666 
L 3047 4666 
L 3047 1625 
L 3713 1625 
L 3713 1100 
L 3047 1100 
L 3047 0 
L 2419 0 
L 2419 1100 
L 313 1100 
L 313 1709 
L 2253 4666 
z
" transform="scale(0.015625)"/>
       </defs>
       <use xlink:href="#DejaVuSans-34"/>
       <use xlink:href="#DejaVuSans-30" x="63.623047"/>
      </g>
     </g>
    </g>
    <g id="xtick_4">
     <g id="line2d_4">
      <g>
       <use xlink:href="#m3030406323" x="194.075152" y="307.584" style="stroke: #000000; stroke-width: 0.8"/>
      </g>
     </g>
     <g id="text_4">
      <!-- 60 -->
      <g transform="translate(187.712652 322.182437) scale(0.1 -0.1)">
       <defs>
        <path id="DejaVuSans-36" d="M 2113 2584 
Q 1688 2584 1439 2293 
Q 1191 2003 1191 1497 
Q 1191 994 1439 701 
Q 1688 409 2113 409 
Q 2538 409 2786 701 
Q 3034 994 3034 1497 
Q 3034 2003 2786 2293 
Q 2538 2584 2113 2584 
z
M 3366 4563 
L 3366 3988 
Q 3128 4100 2886 4159 
Q 2644 4219 2406 4219 
Q 1781 4219 1451 3797 
Q 1122 3375 1075 2522 
Q 1259 2794 1537 2939 
Q 1816 3084 2150 3084 
Q 2853 3084 3261 2657 
Q 3669 2231 3669 1497 
Q 3669 778 3244 343 
Q 2819 -91 2113 -91 
Q 1303 -91 875 529 
Q 447 1150 447 2328 
Q 447 3434 972 4092 
Q 1497 4750 2381 4750 
Q 2619 4750 2861 4703 
Q 3103 4656 3366 4563 
z
" transform="scale(0.015625)"/>
       </defs>
       <use xlink:href="#DejaVuSans-36"/>
       <use xlink:href="#DejaVuSans-30" x="63.623047"/>
      </g>
     </g>
    </g>
    <g id="xtick_5">
     <g id="line2d_5">
      <g>
       <use xlink:href="#m3030406323" x="234.15596" y="307.584" style="stroke: #000000; stroke-width: 0.8"/>
      </g>
     </g>
     <g id="text_5">
      <!-- 80 -->
      <g transform="translate(227.79346 322.182437) scale(0.1 -0.1)">
       <defs>
        <path id="DejaVuSans-38" d="M 2034 2216 
Q 1584 2216 1326 1975 
Q 1069 1734 1069 1313 
Q 1069 891 1326 650 
Q 1584 409 2034 409 
Q 2484 409 2743 651 
Q 3003 894 3003 1313 
Q 3003 1734 2745 1975 
Q 2488 2216 2034 2216 
z
M 1403 2484 
Q 997 2584 770 2862 
Q 544 3141 544 3541 
Q 544 4100 942 4425 
Q 1341 4750 2034 4750 
Q 2731 4750 3128 4425 
Q 3525 4100 3525 3541 
Q 3525 3141 3298 2862 
Q 3072 2584 2669 2484 
Q 3125 2378 3379 2068 
Q 3634 1759 3634 1313 
Q 3634 634 3220 271 
Q 2806 -91 2034 -91 
Q 1263 -91 848 271 
Q 434 634 434 1313 
Q 434 1759 690 2068 
Q 947 2378 1403 2484 
z
M 1172 3481 
Q 1172 3119 1398 2916 
Q 1625 2713 2034 2713 
Q 2441 2713 2670 2916 
Q 2900 3119 2900 3481 
Q 2900 3844 2670 4047 
Q 2441 4250 2034 4250 
Q 1625 4250 1398 4047 
Q 1172 3844 1172 3481 
z
" transform="scale(0.015625)"/>
       </defs>
       <use xlink:href="#DejaVuSans-38"/>
       <use xlink:href="#DejaVuSans-30" x="63.623047"/>
      </g>
     </g>
    </g>
    <g id="xtick_6">
     <g id="line2d_6">
      <g>
       <use xlink:href="#m3030406323" x="274.236768" y="307.584" style="stroke: #000000; stroke-width: 0.8"/>
      </g>
     </g>
     <g id="text_6">
      <!-- 100 -->
      <g transform="translate(264.693018 322.182437) scale(0.1 -0.1)">
       <defs>
        <path id="DejaVuSans-31" d="M 794 531 
L 1825 531 
L 1825 4091 
L 703 3866 
L 703 4441 
L 1819 4666 
L 2450 4666 
L 2450 531 
L 3481 531 
L 3481 0 
L 794 0 
L 794 531 
z
" transform="scale(0.015625)"/>
       </defs>
       <use xlink:href="#DejaVuSans-31"/>
       <use xlink:href="#DejaVuSans-30" x="63.623047"/>
       <use xlink:href="#DejaVuSans-30" x="127.246094"/>
      </g>
     </g>
    </g>
    <g id="xtick_7">
     <g id="line2d_7">
      <g>
       <use xlink:href="#m3030406323" x="314.317576" y="307.584" style="stroke: #000000; stroke-width: 0.8"/>
      </g>
     </g>
     <g id="text_7">
      <!-- 120 -->
      <g transform="translate(304.773826 322.182437) scale(0.1 -0.1)">
       <use xlink:href="#DejaVuSans-31"/>
       <use xlink:href="#DejaVuSans-32" x="63.623047"/>
       <use xlink:href="#DejaVuSans-30" x="127.246094"/>
      </g>
     </g>
    </g>
    <g id="xtick_8">
     <g id="line2d_8">
      <g>
       <use xlink:href="#m3030406323" x="354.398384" y="307.584" style="stroke: #000000; stroke-width: 0.8"/>
      </g>
     </g>
     <g id="text_8">
      <!-- 140 -->
      <g transform="translate(344.854634 322.182437) scale(0.1 -0.1)">
       <use xlink:href="#DejaVuSans-31"/>
       <use xlink:href="#DejaVuSans-34" x="63.623047"/>
       <use xlink:href="#DejaVuSans-30" x="127.246094"/>
      </g>
     </g>
    </g>
    <g id="xtick_9">
     <g id="line2d_9">
      <g>
       <use xlink:href="#m3030406323" x="394.479192" y="307.584" style="stroke: #000000; stroke-width: 0.8"/>
      </g>
     </g>
     <g id="text_9">
      <!-- 160 -->
      <g transform="translate(384.935442 322.182437) scale(0.1 -0.1)">
       <use xlink:href="#DejaVuSans-31"/>
       <use xlink:href="#DejaVuSans-36" x="63.623047"/>
       <use xlink:href="#DejaVuSans-30" x="127.246094"/>
      </g>
     </g>
    </g>
   </g>
   <g id="matplotlib.axis_2">
    <g id="ytick_1">
     <g id="line2d_10">
      <defs>
       <path id="m685d82254d" d="M 0 0 
L -3.5 0 
" style="stroke: #000000; stroke-width: 0.8"/>
      </defs>
      <g>
       <use xlink:href="#m685d82254d" x="57.6" y="272.584437" style="stroke: #000000; stroke-width: 0.8"/>
      </g>
     </g>
     <g id="text_10">
      <!-- 0.0 -->
      <g transform="translate(34.696875 276.383655) scale(0.1 -0.1)">
       <defs>
        <path id="DejaVuSans-2e" d="M 684 794 
L 1344 794 
L 1344 0 
L 684 0 
L 684 794 
z
" transform="scale(0.015625)"/>
       </defs>
       <use xlink:href="#DejaVuSans-30"/>
       <use xlink:href="#DejaVuSans-2e" x="63.623047"/>
       <use xlink:href="#DejaVuSans-30" x="95.410156"/>
      </g>
     </g>
    </g>
    <g id="ytick_2">
     <g id="line2d_11">
      <g>
       <use xlink:href="#m685d82254d" x="57.6" y="226.765098" style="stroke: #000000; stroke-width: 0.8"/>
      </g>
     </g>
     <g id="text_11">
      <!-- 0.5 -->
      <g transform="translate(34.696875 230.564317) scale(0.1 -0.1)">
       <defs>
        <path id="DejaVuSans-35" d="M 691 4666 
L 3169 4666 
L 3169 4134 
L 1269 4134 
L 1269 2991 
Q 1406 3038 1543 3061 
Q 1681 3084 1819 3084 
Q 2600 3084 3056 2656 
Q 3513 2228 3513 1497 
Q 3513 744 3044 326 
Q 2575 -91 1722 -91 
Q 1428 -91 1123 -41 
Q 819 9 494 109 
L 494 744 
Q 775 591 1075 516 
Q 1375 441 1709 441 
Q 2250 441 2565 725 
Q 2881 1009 2881 1497 
Q 2881 1984 2565 2268 
Q 2250 2553 1709 2553 
Q 1456 2553 1204 2497 
Q 953 2441 691 2322 
L 691 4666 
z
" transform="scale(0.015625)"/>
       </defs>
       <use xlink:href="#DejaVuSans-30"/>
       <use xlink:href="#DejaVuSans-2e" x="63.623047"/>
       <use xlink:href="#DejaVuSans-35" x="95.410156"/>
      </g>
     </g>
    </g>
    <g id="ytick_3">
     <g id="line2d_12">
      <g>
       <use xlink:href="#m685d82254d" x="57.6" y="180.94576" style="stroke: #000000; stroke-width: 0.8"/>
      </g>
     </g>
     <g id="text_12">
      <!-- 1.0 -->
      <g transform="translate(34.696875 184.744979) scale(0.1 -0.1)">
       <use xlink:href="#DejaVuSans-31"/>
       <use xlink:href="#DejaVuSans-2e" x="63.623047"/>
       <use xlink:href="#DejaVuSans-30" x="95.410156"/>
      </g>
     </g>
    </g>
    <g id="ytick_4">
     <g id="line2d_13">
      <g>
       <use xlink:href="#m685d82254d" x="57.6" y="135.126422" style="stroke: #000000; stroke-width: 0.8"/>
      </g>
     </g>
     <g id="text_13">
      <!-- 1.5 -->
      <g transform="translate(34.696875 138.925641) scale(0.1 -0.1)">
       <use xlink:href="#DejaVuSans-31"/>
       <use xlink:href="#DejaVuSans-2e" x="63.623047"/>
       <use xlink:href="#DejaVuSans-35" x="95.410156"/>
      </g>
     </g>
    </g>
    <g id="ytick_5">
     <g id="line2d_14">
      <g>
       <use xlink:href="#m685d82254d" x="57.6" y="89.307084" style="stroke: #000000; stroke-width: 0.8"/>
      </g>
     </g>
     <g id="text_14">
      <!-- 2.0 -->
      <g transform="translate(34.696875 93.106303) scale(0.1 -0.1)">
       <use xlink:href="#DejaVuSans-32"/>
       <use xlink:href="#DejaVuSans-2e" x="63.623047"/>
       <use xlink:href="#DejaVuSans-30" x="95.410156"/>
      </g>
     </g>
    </g>
    <g id="ytick_6">
     <g id="line2d_15">
      <g>
       <use xlink:href="#m685d82254d" x="57.6" y="43.487746" style="stroke: #000000; stroke-width: 0.8"/>
      </g>
     </g>
     <g id="text_15">
      <!-- 2.5 -->
      <g transform="translate(34.696875 47.286964) scale(0.1 -0.1)">
       <use xlink:href="#DejaVuSans-32"/>
       <use xlink:href="#DejaVuSans-2e" x="63.623047"/>
       <use xlink:href="#DejaVuSans-35" x="95.410156"/>
      </g>
     </g>
    </g>
    <g id="text_16">
     <!-- 1e6 -->
     <g transform="translate(57.6 38.472) scale(0.1 -0.1)">
      <defs>
       <path id="DejaVuSans-65" d="M 3597 1894 
L 3597 1613 
L 953 1613 
Q 991 1019 1311 708 
Q 1631 397 2203 397 
Q 2534 397 2845 478 
Q 3156 559 3463 722 
L 3463 178 
Q 3153 47 2828 -22 
Q 2503 -91 2169 -91 
Q 1331 -91 842 396 
Q 353 884 353 1716 
Q 353 2575 817 3079 
Q 1281 3584 2069 3584 
Q 2775 3584 3186 3129 
Q 3597 2675 3597 1894 
z
M 3022 2063 
Q 3016 2534 2758 2815 
Q 2500 3097 2075 3097 
Q 1594 3097 1305 2825 
Q 1016 2553 972 2059 
L 3022 2063 
z
" transform="scale(0.015625)"/>
      </defs>
      <use xlink:href="#DejaVuSans-31"/>
      <use xlink:href="#DejaVuSans-65" x="63.623047"/>
      <use xlink:href="#DejaVuSans-36" x="125.146484"/>
     </g>
    </g>
   </g>
   <g id="line2d_16">
    <path d="M 73.832727 240.937468 
L 75.836768 249.476733 
L 77.840808 208.403564 
L 81.848889 242.298532 
L 83.852929 240.137297 
L 85.85697 228.147451 
L 87.86101 255.977279 
L 89.865051 272.822551 
L 91.869091 207.077418 
L 93.873131 223.720371 
L 95.877172 222.988416 
L 97.881212 206.668202 
L 99.885253 274.958708 
L 101.889293 231.013906 
L 103.893333 253.012259 
L 105.897374 246.21319 
L 107.901414 238.653055 
L 109.905455 254.247293 
L 111.909495 252.560153 
L 113.913535 235.784288 
L 115.917576 236.823038 
L 117.921616 240.737869 
L 119.925657 238.408474 
L 121.929697 230.396885 
L 123.933737 276.911005 
L 125.937778 228.466192 
L 127.941818 256.808238 
L 129.945859 240.477785 
L 131.949899 267.49832 
L 133.953939 227.304972 
L 135.95798 242.749795 
L 137.96202 166.492962 
L 139.966061 220.581449 
L 141.970101 225.405271 
L 143.974141 241.255965 
L 145.978182 261.066269 
L 147.982222 125.044387 
L 149.986263 221.908668 
L 151.990303 253.3058 
L 153.994343 237.144039 
L 155.998384 287.321328 
L 158.002424 228.721994 
L 160.006465 99.993268 
L 162.010505 243.32519 
L 164.014545 253.049163 
L 166.018586 268.264795 
L 168.022626 237.998584 
L 170.026667 251.602265 
L 172.030707 253.311876 
L 174.034747 265.693527 
L 176.038788 209.611306 
L 178.042828 264.27821 
L 180.046869 249.494615 
L 182.050909 214.292922 
L 184.054949 118.590949 
L 186.05899 247.224419 
L 188.06303 250.923194 
L 190.067071 236.439575 
L 192.071111 238.251548 
L 194.075152 253.365208 
L 196.079192 248.792824 
L 198.083232 236.159818 
L 200.087273 204.927895 
L 202.091313 254.989673 
L 204.095354 247.711539 
L 206.099394 252.629125 
L 208.103434 242.003745 
L 210.107475 217.692523 
L 212.111515 221.229726 
L 214.115556 251.923278 
L 216.119596 253.737185 
L 218.123636 267.156152 
L 220.127677 234.632128 
L 222.131717 213.329963 
L 224.135758 239.74677 
L 226.139798 271.410195 
L 228.143838 228.161464 
L 230.147879 263.773467 
L 232.151919 218.339389 
L 234.15596 250.798996 
L 236.16 265.167024 
L 238.16404 223.623401 
L 240.168081 241.434245 
L 242.172121 229.446626 
L 244.176162 204.114398 
L 246.180202 295.488 
L 248.184242 242.719242 
L 250.188283 234.462053 
L 252.192323 229.972624 
L 254.196364 246.85454 
L 256.200404 253.689705 
L 258.204444 284.878889 
L 260.208485 212.451132 
L 262.212525 245.857421 
L 264.216566 229.247402 
L 266.220606 281.26843 
L 268.224646 244.150774 
L 270.228687 250.565686 
L 272.232727 246.492406 
L 274.236768 256.044178 
L 276.240808 264.413025 
L 278.244848 245.517305 
L 280.248889 257.618768 
L 284.25697 231.615306 
L 286.26101 218.181159 
L 288.265051 254.304147 
L 290.269091 209.414504 
L 292.273131 268.398633 
L 294.277172 257.61761 
L 296.281212 216.010432 
L 298.285253 250.375059 
L 300.289293 223.712062 
L 302.293333 242.824559 
L 304.297374 245.794981 
L 306.301414 260.868301 
L 308.305455 279.533153 
L 310.309495 223.117337 
L 312.313535 236.308895 
L 314.317576 206.342188 
L 316.321616 241.60824 
L 318.325657 214.809035 
L 320.329697 224.8775 
L 322.333737 244.883367 
L 324.337778 100.311562 
L 326.341818 102.480341 
L 328.345859 261.876509 
L 330.349899 260.417869 
L 332.353939 250.769855 
L 334.35798 283.112831 
L 338.366061 250.018928 
L 340.370101 241.481876 
L 342.374141 267.857702 
L 344.378182 220.820048 
L 346.382222 248.425161 
L 348.386263 130.565328 
L 350.390303 214.460861 
L 352.394343 230.439551 
L 354.398384 204.867275 
L 356.402424 230.984239 
L 358.406465 218.050139 
L 360.410505 243.022054 
L 362.414545 216.509741 
L 364.418586 230.913276 
L 366.422626 276.953637 
L 368.426667 261.338434 
L 370.430707 216.410437 
L 372.434747 226.922214 
L 374.438788 227.198875 
L 376.442828 223.464104 
L 378.446869 272.191221 
L 380.450909 225.555031 
L 382.454949 166.780458 
L 384.45899 215.389103 
L 386.46303 101.207314 
L 388.467071 99.957908 
L 390.471111 238.922988 
L 392.475152 229.663663 
L 394.479192 226.66749 
L 396.483232 238.31863 
L 398.487273 218.72195 
L 398.487273 218.72195 
" clip-path="url(#pbb4b7c794d)" style="fill: none; stroke: #1f77b4; stroke-width: 1.5; stroke-linecap: square"/>
   </g>
   <g id="line2d_17">
    <path d="M 73.832727 229.056065 
L 75.836768 243.26006 
L 77.840808 221.266778 
L 79.844848 229.972452 
L 81.848889 235.837327 
L 83.852929 247.841994 
L 85.85697 237.76174 
L 87.86101 256.089475 
L 89.865051 267.361032 
L 91.869091 236.845353 
L 93.873131 248.758381 
L 95.877172 209.35375 
L 97.881212 162.618025 
L 99.885253 268.094141 
L 101.889293 222.183165 
L 103.893333 250.132961 
L 105.897374 247.841994 
L 107.901414 219.892198 
L 109.905455 247.841994 
L 111.909495 238.494849 
L 113.913535 241.427287 
L 115.917576 226.67346 
L 117.921616 260.671409 
L 119.925657 250.132961 
L 121.929697 246.00922 
L 123.933737 268.91889 
L 125.937778 222.183165 
L 127.941818 257.738971 
L 129.945859 234.554386 
L 131.949899 264.795149 
L 133.953939 217.601322 
L 135.95798 246.925607 
L 137.96202 135.126422 
L 139.966061 196.524335 
L 145.978182 264.795149 
L 147.982222 53.568 
L 149.986263 231.347032 
L 151.990303 254.34834 
L 153.994343 231.347032 
L 155.998384 269.285536 
L 158.002424 208.437363 
L 160.006465 99.285528 
L 162.010505 258.838635 
L 164.014545 254.256793 
L 166.018586 260.213215 
L 168.022626 236.387159 
L 170.026667 260.671409 
L 172.030707 255.173088 
L 174.034747 264.336956 
L 176.038788 213.019297 
L 178.042828 263.878762 
L 180.046869 256.547668 
L 182.050909 219.892289 
L 184.054949 114.50772 
L 186.05899 244.176447 
L 188.06303 250.591154 
L 190.067071 261.129602 
L 192.071111 243.718254 
L 194.075152 257.968068 
L 196.079192 240.510991 
L 198.083232 238.219933 
L 200.087273 213.019389 
L 202.091313 262.504182 
L 204.095354 246.467505 
L 206.099394 258.838635 
L 208.103434 247.841994 
L 210.107475 231.347032 
L 212.111515 196.524335 
L 214.115556 258.930274 
L 216.119596 255.906197 
L 218.123636 263.558027 
L 220.127677 241.427287 
L 222.131717 264.336956 
L 224.135758 251.507541 
L 226.139798 265.711536 
L 228.143838 231.347032 
L 230.147879 258.380442 
L 232.151919 180.94576 
L 234.15596 245.092834 
L 236.16 266.353007 
L 238.16404 235.928966 
L 240.168081 256.089475 
L 242.172121 231.347124 
L 244.176162 194.233368 
L 246.180202 269.835276 
L 248.184242 251.507541 
L 250.188283 223.099551 
L 252.192323 238.219933 
L 254.196364 254.256701 
L 256.200404 241.427287 
L 258.204444 267.819317 
L 260.208485 223.099551 
L 262.212525 233.637999 
L 264.216566 231.347032 
L 266.220606 265.253342 
L 268.224646 262.504182 
L 270.228687 235.012579 
L 272.232727 238.678126 
L 274.236768 252.882121 
L 276.240808 259.296828 
L 278.244848 243.718254 
L 280.248889 258.838635 
L 282.252929 254.256701 
L 286.26101 217.601322 
L 288.265051 249.674767 
L 290.269091 209.353842 
L 292.273131 266.627923 
L 294.277172 249.674767 
L 296.281212 254.714895 
L 298.285253 239.13632 
L 300.289293 202.939043 
L 302.293333 249.674767 
L 304.297374 242.389493 
L 306.301414 263.512208 
L 308.305455 261.587795 
L 310.309495 257.005862 
L 312.313535 245.551027 
L 314.317576 208.529002 
L 316.321616 240.5109 
L 318.325657 223.099551 
L 320.329697 237.303546 
L 322.333737 224.015938 
L 324.337778 99.285528 
L 326.341818 99.285528 
L 328.345859 258.06887 
L 330.349899 261.129602 
L 332.353939 251.507541 
L 334.35798 267.544309 
L 336.36202 262.504182 
L 338.366061 243.26006 
L 340.370101 246.00922 
L 342.374141 261.587795 
L 344.378182 209.353842 
L 346.382222 238.219933 
L 348.386263 135.218061 
L 350.390303 219.892198 
L 352.394343 250.133052 
L 354.398384 219.434004 
L 356.402424 232.721612 
L 358.406465 209.353842 
L 360.410505 236.845353 
L 362.414545 224.474131 
L 364.418586 226.765098 
L 366.422626 265.253342 
L 368.426667 264.795149 
L 370.430707 249.674767 
L 372.434747 250.132961 
L 374.438788 174.072951 
L 376.442828 227.681577 
L 378.446869 267.086116 
L 380.450909 208.529002 
L 382.454949 153.545796 
L 384.45899 222.183165 
L 386.46303 99.285528 
L 388.467071 99.285528 
L 390.471111 231.347032 
L 392.475152 242.343673 
L 394.479192 256.181113 
L 396.483232 231.347032 
L 398.487273 243.26006 
L 398.487273 243.26006 
" clip-path="url(#pbb4b7c794d)" style="fill: none; stroke: #ff7f0e; stroke-width: 1.5; stroke-linecap: square"/>
   </g>
   <g id="patch_3">
    <path d="M 57.6 307.584 
L 57.6 41.472 
" style="fill: none; stroke: #000000; stroke-width: 0.8; stroke-linejoin: miter; stroke-linecap: square"/>
   </g>
   <g id="patch_4">
    <path d="M 414.72 307.584 
L 414.72 41.472 
" style="fill: none; stroke: #000000; stroke-width: 0.8; stroke-linejoin: miter; stroke-linecap: square"/>
   </g>
   <g id="patch_5">
    <path d="M 57.6 307.584 
L 414.72 307.584 
" style="fill: none; stroke: #000000; stroke-width: 0.8; stroke-linejoin: miter; stroke-linecap: square"/>
   </g>
   <g id="patch_6">
    <path d="M 57.6 41.472 
L 414.72 41.472 
" style="fill: none; stroke: #000000; stroke-width: 0.8; stroke-linejoin: miter; stroke-linecap: square"/>
   </g>
  </g>
 </g>
 <defs>
  <clipPath id="pbb4b7c794d">
   <rect x="57.6" y="41.472" width="357.12" height="266.112"/>
  </clipPath>
 </defs>
</svg>
