<?xml version="1.0" encoding="utf-8" standalone="no"?>
<!DOCTYPE svg PUBLIC "-//W3C//DTD SVG 1.1//EN"
  "http://www.w3.org/Graphics/SVG/1.1/DTD/svg11.dtd">
<svg xmlns:xlink="http://www.w3.org/1999/xlink" width="460.8pt" height="345.6pt" viewBox="0 0 460.8 345.6" xmlns="http://www.w3.org/2000/svg" version="1.1">
 <metadata>
  <rdf:RDF xmlns:dc="http://purl.org/dc/elements/1.1/" xmlns:cc="http://creativecommons.org/ns#" xmlns:rdf="http://www.w3.org/1999/02/22-rdf-syntax-ns#">
   <cc:Work>
    <dc:type rdf:resource="http://purl.org/dc/dcmitype/StillImage"/>
    <dc:date>2023-05-06T14:08:58.901889</dc:date>
    <dc:format>image/svg+xml</dc:format>
    <dc:creator>
     <cc:Agent>
      <dc:title>Matplotlib v3.7.1, https://matplotlib.org/</dc:title>
     </cc:Agent>
    </dc:creator>
   </cc:Work>
  </rdf:RDF>
 </metadata>
 <defs>
  <style type="text/css">*{stroke-linejoin: round; stroke-linecap: butt}</style>
 </defs>
 <g id="figure_1">
  <g id="patch_1">
   <path d="M 0 345.6 
L 460.8 345.6 
L 460.8 0 
L 0 0 
z
" style="fill: #ffffff"/>
  </g>
  <g id="axes_1">
   <g id="patch_2">
    <path d="M 57.6 307.584 
L 414.72 307.584 
L 414.72 41.472 
L 57.6 41.472 
z
" style="fill: #ffffff"/>
   </g>
   <g id="matplotlib.axis_1">
    <g id="xtick_1">
     <g id="line2d_1">
      <defs>
       <path id="m9e805afacb" d="M 0 0 
L 0 3.5 
" style="stroke: #000000; stroke-width: 0.8"/>
      </defs>
      <g>
       <use xlink:href="#m9e805afacb" x="73.832727" y="307.584" style="stroke: #000000; stroke-width: 0.8"/>
      </g>
     </g>
     <g id="text_1">
      <!-- 0 -->
      <g transform="translate(70.651477 322.182437) scale(0.1 -0.1)">
       <defs>
        <path id="DejaVuSans-30" d="M 2034 4250 
Q 1547 4250 1301 3770 
Q 1056 3291 1056 2328 
Q 1056 1369 1301 889 
Q 1547 409 2034 409 
Q 2525 409 2770 889 
Q 3016 1369 3016 2328 
Q 3016 3291 2770 3770 
Q 2525 4250 2034 4250 
z
M 2034 4750 
Q 2819 4750 3233 4129 
Q 3647 3509 3647 2328 
Q 3647 1150 3233 529 
Q 2819 -91 2034 -91 
Q 1250 -91 836 529 
Q 422 1150 422 2328 
Q 422 3509 836 4129 
Q 1250 4750 2034 4750 
z
" transform="scale(0.015625)"/>
       </defs>
       <use xlink:href="#DejaVuSans-30"/>
      </g>
     </g>
    </g>
    <g id="xtick_2">
     <g id="line2d_2">
      <g>
       <use xlink:href="#m9e805afacb" x="138.828632" y="307.584" style="stroke: #000000; stroke-width: 0.8"/>
      </g>
     </g>
     <g id="text_2">
      <!-- 200 -->
      <g transform="translate(129.284882 322.182437) scale(0.1 -0.1)">
       <defs>
        <path id="DejaVuSans-32" d="M 1228 531 
L 3431 531 
L 3431 0 
L 469 0 
L 469 531 
Q 828 903 1448 1529 
Q 2069 2156 2228 2338 
Q 2531 2678 2651 2914 
Q 2772 3150 2772 3378 
Q 2772 3750 2511 3984 
Q 2250 4219 1831 4219 
Q 1534 4219 1204 4116 
Q 875 4013 500 3803 
L 500 4441 
Q 881 4594 1212 4672 
Q 1544 4750 1819 4750 
Q 2544 4750 2975 4387 
Q 3406 4025 3406 3419 
Q 3406 3131 3298 2873 
Q 3191 2616 2906 2266 
Q 2828 2175 2409 1742 
Q 1991 1309 1228 531 
z
" transform="scale(0.015625)"/>
       </defs>
       <use xlink:href="#DejaVuSans-32"/>
       <use xlink:href="#DejaVuSans-30" x="63.623047"/>
       <use xlink:href="#DejaVuSans-30" x="127.246094"/>
      </g>
     </g>
    </g>
    <g id="xtick_3">
     <g id="line2d_3">
      <g>
       <use xlink:href="#m9e805afacb" x="203.824537" y="307.584" style="stroke: #000000; stroke-width: 0.8"/>
      </g>
     </g>
     <g id="text_3">
      <!-- 400 -->
      <g transform="translate(194.280787 322.182437) scale(0.1 -0.1)">
       <defs>
        <path id="DejaVuSans-34" d="M 2419 4116 
L 825 1625 
L 2419 1625 
L 2419 4116 
z
M 2253 4666 
L 3047 4666 
L 3047 1625 
L 3713 1625 
L 3713 1100 
L 3047 1100 
L 3047 0 
L 2419 0 
L 2419 1100 
L 313 1100 
L 313 1709 
L 2253 4666 
z
" transform="scale(0.015625)"/>
       </defs>
       <use xlink:href="#DejaVuSans-34"/>
       <use xlink:href="#DejaVuSans-30" x="63.623047"/>
       <use xlink:href="#DejaVuSans-30" x="127.246094"/>
      </g>
     </g>
    </g>
    <g id="xtick_4">
     <g id="line2d_4">
      <g>
       <use xlink:href="#m9e805afacb" x="268.820442" y="307.584" style="stroke: #000000; stroke-width: 0.8"/>
      </g>
     </g>
     <g id="text_4">
      <!-- 600 -->
      <g transform="translate(259.276692 322.182437) scale(0.1 -0.1)">
       <defs>
        <path id="DejaVuSans-36" d="M 2113 2584 
Q 1688 2584 1439 2293 
Q 1191 2003 1191 1497 
Q 1191 994 1439 701 
Q 1688 409 2113 409 
Q 2538 409 2786 701 
Q 3034 994 3034 1497 
Q 3034 2003 2786 2293 
Q 2538 2584 2113 2584 
z
M 3366 4563 
L 3366 3988 
Q 3128 4100 2886 4159 
Q 2644 4219 2406 4219 
Q 1781 4219 1451 3797 
Q 1122 3375 1075 2522 
Q 1259 2794 1537 2939 
Q 1816 3084 2150 3084 
Q 2853 3084 3261 2657 
Q 3669 2231 3669 1497 
Q 3669 778 3244 343 
Q 2819 -91 2113 -91 
Q 1303 -91 875 529 
Q 447 1150 447 2328 
Q 447 3434 972 4092 
Q 1497 4750 2381 4750 
Q 2619 4750 2861 4703 
Q 3103 4656 3366 4563 
z
" transform="scale(0.015625)"/>
       </defs>
       <use xlink:href="#DejaVuSans-36"/>
       <use xlink:href="#DejaVuSans-30" x="63.623047"/>
       <use xlink:href="#DejaVuSans-30" x="127.246094"/>
      </g>
     </g>
    </g>
    <g id="xtick_5">
     <g id="line2d_5">
      <g>
       <use xlink:href="#m9e805afacb" x="333.816347" y="307.584" style="stroke: #000000; stroke-width: 0.8"/>
      </g>
     </g>
     <g id="text_5">
      <!-- 800 -->
      <g transform="translate(324.272597 322.182437) scale(0.1 -0.1)">
       <defs>
        <path id="DejaVuSans-38" d="M 2034 2216 
Q 1584 2216 1326 1975 
Q 1069 1734 1069 1313 
Q 1069 891 1326 650 
Q 1584 409 2034 409 
Q 2484 409 2743 651 
Q 3003 894 3003 1313 
Q 3003 1734 2745 1975 
Q 2488 2216 2034 2216 
z
M 1403 2484 
Q 997 2584 770 2862 
Q 544 3141 544 3541 
Q 544 4100 942 4425 
Q 1341 4750 2034 4750 
Q 2731 4750 3128 4425 
Q 3525 4100 3525 3541 
Q 3525 3141 3298 2862 
Q 3072 2584 2669 2484 
Q 3125 2378 3379 2068 
Q 3634 1759 3634 1313 
Q 3634 634 3220 271 
Q 2806 -91 2034 -91 
Q 1263 -91 848 271 
Q 434 634 434 1313 
Q 434 1759 690 2068 
Q 947 2378 1403 2484 
z
M 1172 3481 
Q 1172 3119 1398 2916 
Q 1625 2713 2034 2713 
Q 2441 2713 2670 2916 
Q 2900 3119 2900 3481 
Q 2900 3844 2670 4047 
Q 2441 4250 2034 4250 
Q 1625 4250 1398 4047 
Q 1172 3844 1172 3481 
z
" transform="scale(0.015625)"/>
       </defs>
       <use xlink:href="#DejaVuSans-38"/>
       <use xlink:href="#DejaVuSans-30" x="63.623047"/>
       <use xlink:href="#DejaVuSans-30" x="127.246094"/>
      </g>
     </g>
    </g>
    <g id="xtick_6">
     <g id="line2d_6">
      <g>
       <use xlink:href="#m9e805afacb" x="398.812252" y="307.584" style="stroke: #000000; stroke-width: 0.8"/>
      </g>
     </g>
     <g id="text_6">
      <!-- 1000 -->
      <g transform="translate(386.087252 322.182437) scale(0.1 -0.1)">
       <defs>
        <path id="DejaVuSans-31" d="M 794 531 
L 1825 531 
L 1825 4091 
L 703 3866 
L 703 4441 
L 1819 4666 
L 2450 4666 
L 2450 531 
L 3481 531 
L 3481 0 
L 794 0 
L 794 531 
z
" transform="scale(0.015625)"/>
       </defs>
       <use xlink:href="#DejaVuSans-31"/>
       <use xlink:href="#DejaVuSans-30" x="63.623047"/>
       <use xlink:href="#DejaVuSans-30" x="127.246094"/>
       <use xlink:href="#DejaVuSans-30" x="190.869141"/>
      </g>
     </g>
    </g>
   </g>
   <g id="matplotlib.axis_2">
    <g id="ytick_1">
     <g id="line2d_7">
      <defs>
       <path id="m26e9354633" d="M 0 0 
L -3.5 0 
" style="stroke: #000000; stroke-width: 0.8"/>
      </defs>
      <g>
       <use xlink:href="#m26e9354633" x="57.6" y="295.488" style="stroke: #000000; stroke-width: 0.8"/>
      </g>
     </g>
     <g id="text_7">
      <!-- −15 -->
      <g transform="translate(29.495313 299.287219) scale(0.1 -0.1)">
       <defs>
        <path id="DejaVuSans-2212" d="M 678 2272 
L 4684 2272 
L 4684 1741 
L 678 1741 
L 678 2272 
z
" transform="scale(0.015625)"/>
        <path id="DejaVuSans-35" d="M 691 4666 
L 3169 4666 
L 3169 4134 
L 1269 4134 
L 1269 2991 
Q 1406 3038 1543 3061 
Q 1681 3084 1819 3084 
Q 2600 3084 3056 2656 
Q 3513 2228 3513 1497 
Q 3513 744 3044 326 
Q 2575 -91 1722 -91 
Q 1428 -91 1123 -41 
Q 819 9 494 109 
L 494 744 
Q 775 591 1075 516 
Q 1375 441 1709 441 
Q 2250 441 2565 725 
Q 2881 1009 2881 1497 
Q 2881 1984 2565 2268 
Q 2250 2553 1709 2553 
Q 1456 2553 1204 2497 
Q 953 2441 691 2322 
L 691 4666 
z
" transform="scale(0.015625)"/>
       </defs>
       <use xlink:href="#DejaVuSans-2212"/>
       <use xlink:href="#DejaVuSans-31" x="83.789062"/>
       <use xlink:href="#DejaVuSans-35" x="147.412109"/>
      </g>
     </g>
    </g>
    <g id="ytick_2">
     <g id="line2d_8">
      <g>
       <use xlink:href="#m26e9354633" x="57.6" y="261.888" style="stroke: #000000; stroke-width: 0.8"/>
      </g>
     </g>
     <g id="text_8">
      <!-- −10 -->
      <g transform="translate(29.495313 265.687219) scale(0.1 -0.1)">
       <use xlink:href="#DejaVuSans-2212"/>
       <use xlink:href="#DejaVuSans-31" x="83.789062"/>
       <use xlink:href="#DejaVuSans-30" x="147.412109"/>
      </g>
     </g>
    </g>
    <g id="ytick_3">
     <g id="line2d_9">
      <g>
       <use xlink:href="#m26e9354633" x="57.6" y="228.288" style="stroke: #000000; stroke-width: 0.8"/>
      </g>
     </g>
     <g id="text_9">
      <!-- −5 -->
      <g transform="translate(35.857813 232.087219) scale(0.1 -0.1)">
       <use xlink:href="#DejaVuSans-2212"/>
       <use xlink:href="#DejaVuSans-35" x="83.789062"/>
      </g>
     </g>
    </g>
    <g id="ytick_4">
     <g id="line2d_10">
      <g>
       <use xlink:href="#m26e9354633" x="57.6" y="194.688" style="stroke: #000000; stroke-width: 0.8"/>
      </g>
     </g>
     <g id="text_10">
      <!-- 0 -->
      <g transform="translate(44.2375 198.487219) scale(0.1 -0.1)">
       <use xlink:href="#DejaVuSans-30"/>
      </g>
     </g>
    </g>
    <g id="ytick_5">
     <g id="line2d_11">
      <g>
       <use xlink:href="#m26e9354633" x="57.6" y="161.088" style="stroke: #000000; stroke-width: 0.8"/>
      </g>
     </g>
     <g id="text_11">
      <!-- 5 -->
      <g transform="translate(44.2375 164.887219) scale(0.1 -0.1)">
       <use xlink:href="#DejaVuSans-35"/>
      </g>
     </g>
    </g>
    <g id="ytick_6">
     <g id="line2d_12">
      <g>
       <use xlink:href="#m26e9354633" x="57.6" y="127.488" style="stroke: #000000; stroke-width: 0.8"/>
      </g>
     </g>
     <g id="text_12">
      <!-- 10 -->
      <g transform="translate(37.875 131.287219) scale(0.1 -0.1)">
       <use xlink:href="#DejaVuSans-31"/>
       <use xlink:href="#DejaVuSans-30" x="63.623047"/>
      </g>
     </g>
    </g>
    <g id="ytick_7">
     <g id="line2d_13">
      <g>
       <use xlink:href="#m26e9354633" x="57.6" y="93.888" style="stroke: #000000; stroke-width: 0.8"/>
      </g>
     </g>
     <g id="text_13">
      <!-- 15 -->
      <g transform="translate(37.875 97.687219) scale(0.1 -0.1)">
       <use xlink:href="#DejaVuSans-31"/>
       <use xlink:href="#DejaVuSans-35" x="63.623047"/>
      </g>
     </g>
    </g>
    <g id="ytick_8">
     <g id="line2d_14">
      <g>
       <use xlink:href="#m26e9354633" x="57.6" y="60.288" style="stroke: #000000; stroke-width: 0.8"/>
      </g>
     </g>
     <g id="text_14">
      <!-- 20 -->
      <g transform="translate(37.875 64.087219) scale(0.1 -0.1)">
       <use xlink:href="#DejaVuSans-32"/>
       <use xlink:href="#DejaVuSans-30" x="63.623047"/>
      </g>
     </g>
    </g>
   </g>
   <g id="line2d_15">
    <path d="M 73.832727 201.408 
L 74.157707 194.688 
L 74.807666 208.128 
L 76.107584 181.248 
L 76.432563 187.968 
L 76.757543 181.248 
L 78.382441 214.848 
L 79.682359 187.968 
L 80.007338 194.688 
L 80.332318 187.968 
L 81.307256 208.128 
L 81.632236 201.408 
L 82.282195 214.848 
L 82.607174 208.128 
L 82.932154 214.848 
L 83.582113 201.408 
L 83.907093 208.128 
L 84.232072 201.408 
L 85.207011 221.568 
L 85.53199 214.848 
L 85.85697 221.568 
L 86.506929 208.128 
L 86.831908 214.848 
L 87.481867 201.408 
L 87.806847 208.128 
L 88.456806 194.688 
L 89.756724 221.568 
L 90.406683 208.128 
L 90.731663 214.848 
L 91.056642 208.128 
L 92.35656 235.008 
L 93.331499 214.848 
L 93.656478 221.568 
L 94.306437 208.128 
L 94.631417 214.848 
L 94.956396 208.128 
L 95.281376 214.848 
L 96.256314 194.688 
L 96.581294 201.408 
L 97.231253 187.968 
L 97.556233 194.688 
L 97.881212 187.968 
L 98.206192 194.688 
L 98.856151 181.248 
L 99.18113 187.968 
L 99.50611 181.248 
L 99.831089 187.968 
L 100.156069 181.248 
L 100.481048 187.968 
L 100.806028 181.248 
L 101.455987 194.688 
L 102.105946 181.248 
L 102.755905 194.688 
L 103.080885 187.968 
L 104.380803 214.848 
L 105.030762 201.408 
L 105.680721 214.848 
L 107.630598 174.528 
L 107.955577 181.248 
L 108.605536 167.808 
L 109.905455 194.688 
L 110.230434 187.968 
L 110.880393 201.408 
L 111.530352 187.968 
L 112.505291 208.128 
L 112.83027 201.408 
L 113.15525 208.128 
L 113.805209 194.688 
L 114.130188 201.408 
L 115.105127 181.248 
L 117.704963 235.008 
L 118.679902 214.848 
L 119.004881 221.568 
L 119.65484 208.128 
L 120.629779 228.288 
L 120.954758 221.568 
L 121.604717 235.008 
L 122.579656 214.848 
L 123.229615 228.288 
L 123.554595 221.568 
L 123.879574 228.288 
L 124.204554 221.568 
L 125.829451 255.168 
L 126.47941 241.728 
L 126.80439 248.448 
L 127.779328 228.288 
L 128.429287 241.728 
L 129.079247 228.288 
L 130.054185 248.448 
L 130.704144 235.008 
L 131.679083 255.168 
L 132.004062 248.448 
L 132.329042 255.168 
L 133.30398 235.008 
L 134.603898 261.888 
L 135.253857 248.448 
L 135.578837 255.168 
L 136.228796 241.728 
L 137.853694 275.328 
L 138.503653 261.888 
L 138.828632 268.608 
L 139.153612 261.888 
L 139.803571 275.328 
L 140.778509 255.168 
L 141.428468 268.608 
L 142.403407 248.448 
L 143.053366 261.888 
L 143.378346 255.168 
L 144.028305 268.608 
L 144.353284 261.888 
L 145.003243 275.328 
L 145.653202 261.888 
L 145.978182 268.608 
L 146.95312 248.448 
L 147.2781 255.168 
L 148.578018 228.288 
L 148.902998 235.008 
L 149.227977 228.288 
L 150.202916 248.448 
L 151.827813 214.848 
L 152.152793 221.568 
L 152.802752 208.128 
L 153.127731 214.848 
L 153.452711 208.128 
L 154.752629 235.008 
L 155.077609 228.288 
L 155.402588 235.008 
L 155.727568 228.288 
L 156.052547 235.008 
L 156.377527 228.288 
L 157.027486 241.728 
L 157.352465 235.008 
L 158.002424 248.448 
L 158.652383 235.008 
L 159.302342 248.448 
L 159.627322 241.728 
L 160.60226 261.888 
L 161.577199 241.728 
L 161.902179 248.448 
L 162.552138 235.008 
L 163.527076 255.168 
L 164.177035 241.728 
L 164.502015 248.448 
L 164.826994 241.728 
L 165.801933 261.888 
L 166.451892 248.448 
L 167.101851 261.888 
L 168.726749 228.288 
L 170.351646 261.888 
L 171.976544 228.288 
L 172.951482 248.448 
L 173.601441 235.008 
L 173.926421 241.728 
L 174.2514 235.008 
L 174.57638 241.728 
L 175.551319 221.568 
L 175.876298 228.288 
L 176.201278 221.568 
L 176.526257 228.288 
L 176.851237 221.568 
L 177.176216 228.288 
L 177.501196 221.568 
L 177.826175 228.288 
L 179.451073 194.688 
L 179.776052 201.408 
L 180.426011 187.968 
L 181.075971 201.408 
L 181.72593 187.968 
L 182.375889 201.408 
L 183.025848 187.968 
L 183.350827 194.688 
L 183.675807 187.968 
L 184.650745 208.128 
L 184.975725 201.408 
L 185.950663 221.568 
L 186.275643 214.848 
L 186.600622 221.568 
L 187.250581 208.128 
L 187.900541 221.568 
L 188.22552 214.848 
L 188.5505 221.568 
L 189.525438 201.408 
L 189.850418 208.128 
L 190.825356 187.968 
L 191.475315 201.408 
L 193.100213 167.808 
L 193.425192 174.528 
L 194.075152 161.088 
L 194.400131 167.808 
L 194.725111 161.088 
L 196.350008 194.688 
L 196.999967 181.248 
L 197.324947 187.968 
L 197.974906 174.528 
L 199.274824 201.408 
L 199.599803 194.688 
L 200.249762 208.128 
L 201.549681 181.248 
L 202.19964 194.688 
L 202.849599 181.248 
L 203.499558 194.688 
L 204.799476 167.808 
L 205.124455 174.528 
L 205.774414 161.088 
L 206.099394 167.808 
L 206.749353 154.368 
L 207.724292 174.528 
L 208.049271 167.808 
L 208.374251 174.528 
L 209.674169 147.648 
L 210.974087 174.528 
L 211.299066 167.808 
L 212.274005 187.968 
L 212.923964 174.528 
L 213.248943 181.248 
L 213.898903 167.808 
L 214.873841 187.968 
L 215.198821 181.248 
L 215.5238 187.968 
L 215.84878 181.248 
L 216.173759 187.968 
L 216.823718 174.528 
L 217.473677 187.968 
L 218.448616 167.808 
L 218.773595 174.528 
L 221.698411 114.048 
L 222.34837 127.488 
L 222.67335 120.768 
L 223.323309 134.208 
L 223.648288 127.488 
L 224.298247 140.928 
L 224.948206 127.488 
L 226.248124 154.368 
L 228.198002 114.048 
L 228.522981 120.768 
L 228.847961 114.048 
L 230.147879 140.928 
L 230.472858 134.208 
L 230.797838 140.928 
L 231.122817 134.208 
L 232.097756 154.368 
L 235.99751 73.728 
L 236.32249 80.448 
L 236.972449 67.008 
L 237.947387 87.168 
L 238.272367 80.448 
L 239.247305 100.608 
L 239.572285 93.888 
L 240.547224 114.048 
L 240.872203 107.328 
L 241.197183 114.048 
L 242.172121 93.888 
L 243.472039 120.768 
L 243.797019 114.048 
L 244.446978 127.488 
L 246.721835 80.448 
L 247.046814 87.168 
L 247.371794 80.448 
L 248.021753 93.888 
L 248.346732 87.168 
L 248.671712 93.888 
L 248.996691 87.168 
L 249.321671 93.888 
L 250.621589 67.008 
L 251.271548 80.448 
L 251.921507 67.008 
L 253.221425 93.888 
L 253.871384 80.448 
L 254.521343 93.888 
L 255.496282 73.728 
L 256.146241 87.168 
L 256.47122 80.448 
L 257.121179 93.888 
L 257.446159 87.168 
L 257.771138 93.888 
L 258.746077 73.728 
L 259.071057 80.448 
L 259.721016 67.008 
L 260.695954 87.168 
L 261.020934 80.448 
L 261.670893 93.888 
L 263.29579 60.288 
L 263.62077 67.008 
L 263.945749 60.288 
L 264.270729 67.008 
L 264.595708 60.288 
L 265.245667 73.728 
L 266.220606 53.568 
L 267.195545 73.728 
L 267.845504 60.288 
L 268.170483 67.008 
L 268.495463 60.288 
L 268.820442 67.008 
L 269.470401 53.568 
L 269.795381 60.288 
L 270.12036 53.568 
L 271.420278 80.448 
L 272.070238 67.008 
L 272.395217 73.728 
L 272.720197 67.008 
L 273.045176 73.728 
L 273.370156 67.008 
L 273.695135 73.728 
L 274.020115 67.008 
L 274.670074 80.448 
L 274.995053 73.728 
L 275.320033 80.448 
L 275.645012 73.728 
L 276.294971 87.168 
L 276.94493 73.728 
L 278.569828 107.328 
L 279.869746 80.448 
L 280.519705 93.888 
L 280.844685 87.168 
L 281.819623 107.328 
L 282.144603 100.608 
L 282.469582 107.328 
L 282.794562 100.608 
L 283.444521 114.048 
L 284.744439 87.168 
L 285.069419 93.888 
L 285.394398 87.168 
L 285.719378 93.888 
L 286.044357 87.168 
L 286.369337 93.888 
L 286.694316 87.168 
L 287.669255 107.328 
L 288.644193 87.168 
L 288.969173 93.888 
L 289.294152 87.168 
L 289.619132 93.888 
L 290.269091 80.448 
L 291.244029 100.608 
L 291.569009 93.888 
L 291.893989 100.608 
L 292.218968 93.888 
L 293.843866 127.488 
L 294.168845 120.768 
L 294.493825 127.488 
L 295.143784 114.048 
L 295.468763 120.768 
L 296.118722 107.328 
L 297.093661 127.488 
L 297.41864 120.768 
L 297.74362 127.488 
L 298.0686 120.768 
L 298.393579 127.488 
L 298.718559 120.768 
L 300.018477 147.648 
L 300.668436 134.208 
L 300.993415 140.928 
L 301.318395 134.208 
L 301.643374 140.928 
L 301.968354 134.208 
L 302.943292 154.368 
L 303.268272 147.648 
L 303.918231 161.088 
L 304.24321 154.368 
L 305.218149 174.528 
L 305.868108 161.088 
L 306.843047 181.248 
L 307.168026 174.528 
L 307.817985 187.968 
L 308.142965 181.248 
L 311.067781 241.728 
L 312.042719 221.568 
L 312.692678 235.008 
L 313.667617 214.848 
L 314.642555 235.008 
L 315.617494 214.848 
L 316.917412 241.728 
L 317.242391 235.008 
L 317.567371 241.728 
L 318.54231 221.568 
L 318.867289 228.288 
L 319.517248 214.848 
L 320.492187 235.008 
L 321.142146 221.568 
L 321.467125 228.288 
L 322.117084 214.848 
L 323.417002 241.728 
L 324.066962 228.288 
L 324.391941 235.008 
L 325.0419 221.568 
L 325.36688 228.288 
L 326.666798 201.408 
L 326.991777 208.128 
L 327.966716 187.968 
L 328.291695 194.688 
L 328.941654 181.248 
L 329.266634 187.968 
L 330.241572 167.808 
L 330.566552 174.528 
L 330.891532 167.808 
L 333.816347 228.288 
L 334.466306 214.848 
L 335.116265 228.288 
L 335.441245 221.568 
L 336.741163 248.448 
L 337.391122 235.008 
L 337.716102 241.728 
L 338.366061 228.288 
L 339.01602 241.728 
L 339.340999 235.008 
L 342.265815 295.488 
L 342.915774 282.048 
L 343.240753 288.768 
L 343.890713 275.328 
L 344.215692 282.048 
L 344.540672 275.328 
L 344.865651 282.048 
L 345.84059 261.888 
L 346.490549 275.328 
L 347.140508 261.888 
L 347.465487 268.608 
L 347.790467 261.888 
L 348.440426 275.328 
L 349.090385 261.888 
L 349.415364 268.608 
L 349.740344 261.888 
L 350.390303 275.328 
L 351.040262 261.888 
L 351.365242 268.608 
L 352.990139 235.008 
L 353.315119 241.728 
L 354.290057 221.568 
L 355.264996 241.728 
L 355.589975 235.008 
L 356.239934 248.448 
L 356.564914 241.728 
L 357.539853 261.888 
L 357.864832 255.168 
L 358.189812 261.888 
L 358.514791 255.168 
L 359.16475 268.608 
L 359.48973 261.888 
L 359.814709 268.608 
L 361.114627 241.728 
L 362.414545 268.608 
L 363.389484 248.448 
L 363.714464 255.168 
L 364.364423 241.728 
L 365.014382 255.168 
L 365.98932 235.008 
L 367.289238 261.888 
L 369.564095 214.848 
L 369.889075 221.568 
L 370.214054 214.848 
L 370.539034 221.568 
L 370.864013 214.848 
L 371.838952 235.008 
L 372.488911 221.568 
L 372.81389 228.288 
L 373.463849 214.848 
L 373.788829 221.568 
L 376.713645 161.088 
L 377.038624 167.808 
L 377.688583 154.368 
L 378.988501 181.248 
L 379.313481 174.528 
L 379.96344 187.968 
L 381.588337 154.368 
L 382.238296 167.808 
L 382.563276 161.088 
L 383.863194 187.968 
L 384.513153 174.528 
L 384.838133 181.248 
L 385.163112 174.528 
L 386.46303 201.408 
L 386.78801 194.688 
L 387.112989 201.408 
L 387.762948 187.968 
L 388.087928 194.688 
L 388.412907 187.968 
L 388.737887 194.688 
L 389.712826 174.528 
L 390.037805 181.248 
L 392.312662 134.208 
L 392.962621 147.648 
L 393.2876 140.928 
L 393.61258 147.648 
L 394.912498 120.768 
L 396.862375 161.088 
L 398.162293 134.208 
L 398.487273 140.928 
L 398.487273 140.928 
" clip-path="url(#p218462b2f1)" style="fill: none; stroke: #1f77b4; stroke-width: 1.5; stroke-linecap: square"/>
   </g>
   <g id="patch_3">
    <path d="M 57.6 307.584 
L 57.6 41.472 
" style="fill: none; stroke: #000000; stroke-width: 0.8; stroke-linejoin: miter; stroke-linecap: square"/>
   </g>
   <g id="patch_4">
    <path d="M 414.72 307.584 
L 414.72 41.472 
" style="fill: none; stroke: #000000; stroke-width: 0.8; stroke-linejoin: miter; stroke-linecap: square"/>
   </g>
   <g id="patch_5">
    <path d="M 57.6 307.584 
L 414.72 307.584 
" style="fill: none; stroke: #000000; stroke-width: 0.8; stroke-linejoin: miter; stroke-linecap: square"/>
   </g>
   <g id="patch_6">
    <path d="M 57.6 41.472 
L 414.72 41.472 
" style="fill: none; stroke: #000000; stroke-width: 0.8; stroke-linejoin: miter; stroke-linecap: square"/>
   </g>
  </g>
 </g>
 <defs>
  <clipPath id="p218462b2f1">
   <rect x="57.6" y="41.472" width="357.12" height="266.112"/>
  </clipPath>
 </defs>
</svg>
